<?xml version="1.0" encoding="UTF-8" standalone="no"?><svg xmlns="http://www.w3.org/2000/svg" xmlns:xlink="http://www.w3.org/1999/xlink" fill="#000000" height="472.9" preserveAspectRatio="xMidYMid meet" version="1" viewBox="0.0 0.0 512.0 472.9" width="512" zoomAndPan="magnify"><defs><clipPath id="a"><path d="M 0 108 L 228 108 L 228 472.859375 L 0 472.859375 Z M 0 108"/></clipPath></defs><g><g id="change1_2"><path d="M 213.078125 194.894531 C 211.078125 197.21875 208.558594 199.554688 205.558594 201.847656 C 202.449219 204.226562 198.980469 206.605469 195.222656 208.898438 C 191.339844 211.242188 187.429688 213.519531 183.457031 215.722656 C 178.667969 218.4375 173.511719 221.898438 168.144531 226.015625 C 162.652344 230.199219 157.375 235.148438 152.441406 240.71875 C 147.519531 246.34375 143.195312 252.667969 139.566406 259.550781 C 135.820312 266.609375 133.304688 274.457031 132.082031 282.855469 L 130.707031 292.246094 C 130.035156 296.953125 131.082031 300.378906 133.804688 302.433594 C 135.949219 304.058594 138.25 304.882812 140.65625 304.882812 L 226.292969 304.882812 C 228.925781 304.882812 231.273438 304.207031 233.238281 302.914062 C 235.628906 301.371094 237.121094 298.699219 237.695312 294.933594 L 239.597656 281.929688 C 240.441406 275.914062 237.695312 273.363281 235.976562 272.378906 C 233.941406 271.230469 231.199219 270.691406 227.34375 270.691406 L 173.992188 270.664062 C 175.644531 264.9375 178.460938 260.175781 182.523438 256.203125 C 187.859375 251.0625 193.714844 246.691406 199.871094 243.269531 C 205.421875 240.289062 211.09375 237.089844 216.8125 233.632812 C 222.691406 230.074219 228.1875 226.054688 233.148438 221.675781 C 238.210938 217.214844 242.589844 212.226562 246.191406 206.816406 C 249.894531 201.1875 252.296875 194.765625 253.316406 187.722656 C 255.496094 172.828125 252.0625 161.605469 243.101562 154.367188 C 234.644531 147.578125 222.515625 144.117188 207.035156 144.117188 C 200.542969 144.117188 194.714844 144.503906 189.691406 145.269531 C 184.648438 146.046875 180.382812 146.945312 176.644531 148.03125 C 172.894531 149.152344 169.742188 150.320312 167.019531 151.605469 C 164.398438 152.847656 162.214844 153.9375 160.363281 154.933594 C 157.832031 156.375 156.613281 159.285156 156.753906 163.5625 C 156.828125 166.316406 157.167969 169.261719 157.746094 172.277344 C 158.339844 175.398438 159.195312 178.324219 160.304688 180.953125 C 161.027344 182.65625 162.9375 187.15625 167.257812 187.15625 C 168.066406 187.15625 168.863281 186.9375 169.554688 186.519531 C 173.558594 184.148438 177.964844 181.898438 182.617188 179.867188 C 187.074219 177.917969 192.71875 176.929688 199.390625 176.929688 C 206.804688 176.929688 211.964844 178.367188 214.320312 181.089844 C 215.933594 182.953125 216.449219 185.683594 215.894531 189.449219 C 215.648438 191.160156 214.695312 192.996094 213.078125 194.894531" fill="#ffffff"/></g><g id="change1_3"><path d="M 312.019531 244.710938 L 287.511719 244.710938 C 293.027344 237.492188 315.542969 208.472656 319.234375 203.78125 Z M 357.375 151.890625 C 356.957031 149.824219 355.1875 146.335938 348.105469 146.335938 L 335.261719 146.335938 C 332.292969 146.335938 329.367188 147.75 326.546875 150.546875 C 324.492188 152.589844 322.785156 154.394531 321.382812 156.078125 L 250.039062 246.832031 C 249.242188 248.105469 248.558594 249.378906 247.996094 250.609375 C 247.28125 252.097656 246.792969 253.941406 246.394531 256.589844 L 245.039062 265.742188 C 244.472656 269.835938 245.347656 272.835938 247.632812 274.621094 C 249.445312 276.042969 251.9375 276.707031 255.492188 276.707031 L 307.367188 276.707031 L 304.972656 293.0625 C 304.363281 297.3125 305.253906 300.460938 307.554688 302.382812 C 309.488281 304.058594 312.367188 304.882812 316.34375 304.882812 L 325.773438 304.882812 C 329.351562 304.882812 332 304.132812 333.804688 302.609375 C 335.703125 301.027344 336.878906 298.609375 337.386719 295.203125 L 340.074219 276.707031 L 341.921875 276.707031 C 345.886719 276.707031 348.800781 275.464844 350.59375 273.011719 C 351.898438 271.203125 352.765625 268.703125 353.238281 265.367188 L 354.585938 256.246094 C 355.035156 253.183594 355.230469 249.75 353.367188 247.546875 C 351.367188 244.992188 347.945312 244.710938 345.535156 244.710938 L 344.742188 244.710938 L 357.203125 159.246094 C 357.660156 156.246094 357.722656 153.882812 357.375 151.890625" fill="#ffffff"/></g><g id="change1_4"><path d="M 408.410156 145.660156 C 407.449219 144.453125 405.589844 143.011719 402.207031 143.011719 L 395.628906 143.011719 C 391.707031 143.011719 389.613281 144.691406 388.546875 146.097656 C 387.40625 147.609375 386.660156 149.535156 386.339844 151.824219 L 375.410156 226.761719 C 374.972656 229.753906 375.179688 231.953125 376.019531 233.527344 C 376.691406 234.949219 378.527344 237.324219 383.183594 237.324219 L 389.773438 237.324219 C 393.515625 237.324219 395.511719 235.417969 396.414062 234.222656 C 397.46875 232.769531 398.167969 230.757812 398.546875 228.078125 L 403.535156 193.859375 C 403.640625 193.113281 403.9375 192.269531 404.386719 191.378906 C 404.878906 190.414062 405.507812 189.554688 406.269531 188.769531 C 407.011719 188.011719 407.875 187.378906 408.808594 186.917969 C 409.671875 186.5 410.664062 186.292969 411.828125 186.292969 C 413.621094 186.292969 414.425781 186.652344 414.488281 186.789062 C 415.070312 187.898438 415.238281 189.222656 415.007812 190.839844 L 409.773438 226.625 C 409.320312 229.78125 409.574219 232.070312 410.574219 233.789062 C 411.3125 235.117188 413.171875 237.324219 417.253906 237.324219 L 424.285156 237.324219 C 428.839844 237.324219 430.8125 234.820312 431.554688 233.386719 C 432.359375 231.863281 432.941406 229.78125 433.359375 226.832031 L 438.804688 189.527344 C 439.449219 185.253906 439.449219 181.449219 438.789062 178.226562 C 438.078125 174.789062 436.8125 171.933594 435.042969 169.78125 C 433.164062 167.417969 430.730469 165.707031 427.835938 164.703125 C 425.296875 163.816406 422.417969 163.355469 419.269531 163.355469 C 414.859375 163.355469 411.011719 164.042969 407.824219 165.339844 L 409.605469 153.128906 C 409.941406 150.789062 410.121094 147.832031 408.410156 145.660156" fill="#ffffff"/></g><g id="change1_5"><path d="M 286.269531 0 C 211.101562 0.0078125 144.5625 36.78125 103.539062 93.285156 L 119.203125 121.546875 C 127.152344 108.832031 136.476562 97.058594 147.035156 86.492188 C 182.714844 50.839844 231.851562 28.824219 286.269531 28.820312 C 340.695312 28.824219 389.832031 50.839844 425.511719 86.492188 C 461.167969 122.175781 483.175781 171.3125 483.183594 225.730469 C 483.175781 280.15625 461.167969 329.285156 425.511719 364.964844 C 389.832031 400.621094 340.695312 422.628906 286.269531 422.636719 C 284.847656 422.636719 283.445312 422.558594 282.03125 422.527344 C 285.945312 430.503906 286.882812 439.519531 284.394531 448.183594 C 284.078125 449.296875 283.554688 450.3125 283.136719 451.378906 C 284.183594 451.390625 285.222656 451.457031 286.269531 451.457031 C 410.945312 451.445312 511.992188 350.40625 512 225.730469 C 511.988281 101.0625 410.945312 0.0117188 286.269531 0" fill="#ffffff"/></g><g id="change1_6"><path d="M 117.160156 181.613281 C 123.535156 178.058594 125.832031 170.058594 122.28125 163.707031 L 83.96875 94.546875 C 80.421875 88.1875 72.402344 85.898438 66.019531 89.402344 L 47.167969 99.886719 L 98.308594 192.058594 L 117.160156 181.613281" fill="#ffffff"/></g><g clip-path="url(#a)" id="change1_1"><path d="M 174.285156 375.53125 C 156.371094 385.46875 132.6875 370.054688 121.355469 349.605469 L 69.507812 256.085938 C 58.152344 235.640625 63.492188 211.039062 81.414062 201.070312 L 83.363281 199.984375 L 32.414062 108.117188 C 31.925781 108.363281 31.453125 108.582031 30.972656 108.882812 C -10.46875 131.824219 -10.304688 211.355469 31.34375 286.476562 L 75.371094 365.878906 C 117.023438 440.984375 184.351562 490.140625 225.808594 467.171875 C 226.269531 466.914062 226.753906 466.605469 227.195312 466.355469 L 176.253906 374.453125 L 174.285156 375.53125" fill="#ffffff"/></g><g id="change1_7"><path d="M 227.894531 361.0625 C 224.363281 354.707031 216.335938 352.398438 209.96875 355.933594 L 191.125 366.390625 L 242.25 458.585938 L 261.085938 448.144531 C 267.464844 444.605469 269.765625 436.558594 266.21875 430.203125 L 227.894531 361.0625" fill="#ffffff"/></g></g></svg>