<?xml version="1.0" encoding="UTF-8" standalone="no"?><svg xmlns="http://www.w3.org/2000/svg" xmlns:xlink="http://www.w3.org/1999/xlink" fill="#ef161d" height="84.6" preserveAspectRatio="xMidYMid meet" version="1" viewBox="25.2 12.2 58.6 84.6" width="58.6" zoomAndPan="magnify"><g id="change1_1"><path d="M54.501,12.19c-16.198,0-29.325,13.128-29.325,29.325c0,2.694,0.37,5.301,1.052,7.778 c0.59,2.157,1.417,4.218,2.46,6.147c0.252,0.465,0.518,0.924,0.793,1.375L51.59,95.11c0.047,0.082,0.09,0.168,0.142,0.248 c0.608,0.878,1.62,1.452,2.767,1.452c1.15,0,2.165-0.582,2.772-1.463l0.094-0.163l22.149-38.362l0.8-1.385 c1.041-1.928,1.867-3.99,2.46-6.144c0.679-2.477,1.05-5.084,1.05-7.778C83.824,25.318,70.696,12.19,54.501,12.19z M54.499,53.808 c-6.792,0-12.297-5.505-12.297-12.293c0-6.792,5.504-12.298,12.297-12.298c6.791,0,12.293,5.506,12.293,12.298 C66.792,48.303,61.29,53.808,54.499,53.808z"/></g></svg>