<?xml version="1.0" encoding="UTF-8" standalone="no"?><svg xmlns="http://www.w3.org/2000/svg" xmlns:xlink="http://www.w3.org/1999/xlink" fill="#000000" height="792.1" preserveAspectRatio="xMidYMid meet" version="1" viewBox="0.0 0.0 512.8 792.1" width="512.8" zoomAndPan="magnify"><defs><clipPath id="a"><path d="M 203 0 L 311 0 L 311 792.109375 L 203 792.109375 Z M 203 0"/></clipPath><clipPath id="b"><path d="M 0 163 L 512.800781 163 L 512.800781 271 L 0 271 Z M 0 163"/></clipPath><clipPath id="c"><path d="M 289 190 L 512.800781 190 L 512.800781 205 L 289 205 Z M 289 190"/></clipPath><clipPath id="d"><path d="M 370 172 L 512.800781 172 L 512.800781 189 L 370 189 Z M 370 172"/></clipPath><clipPath id="e"><path d="M 467 183 L 512.800781 183 L 512.800781 196 L 467 196 Z M 467 183"/></clipPath><clipPath id="f"><path d="M 135 205 L 512.800781 205 L 512.800781 256 L 135 256 Z M 135 205"/></clipPath><clipPath id="g"><path d="M 360 220 L 512.800781 220 L 512.800781 250 L 360 250 Z M 360 220"/></clipPath><clipPath id="h"><path d="M 248 251 L 512.800781 251 L 512.800781 264 L 248 264 Z M 248 251"/></clipPath><clipPath id="i"><path d="M 392 228 L 512.800781 228 L 512.800781 252 L 392 252 Z M 392 228"/></clipPath><clipPath id="j"><path d="M 465 213 L 512.800781 213 L 512.800781 222 L 465 222 Z M 465 213"/></clipPath></defs><g><g clip-path="url(#a)" id="change1_1"><path d="M 310.84375 5.183594 L 310.84375 787.246094 C 310.84375 788.585938 310.304688 789.804688 309.421875 790.6875 C 308.65625 791.453125 305.933594 790.75 304.347656 790.550781 C 304.105469 790.523438 303.890625 790.507812 303.710938 790.507812 L 303.050781 790.523438 L 296.222656 790.769531 L 295.078125 790.804688 L 279.960938 791.324219 L 278.511719 791.371094 L 264.960938 791.839844 L 261.222656 791.964844 L 257.015625 792.109375 L 251.835938 791.9375 L 248.121094 791.8125 L 240.246094 791.550781 L 237.085938 791.453125 L 233.328125 791.324219 L 231.914062 791.28125 L 221.824219 790.949219 L 218.867188 790.847656 L 215.300781 790.730469 C 215.175781 790.730469 214.976562 790.742188 214.726562 790.757812 C 214.390625 790.769531 213.949219 790.792969 213.453125 790.832031 C 210.5 791.019531 205.292969 791.371094 204.617188 790.6875 C 203.734375 789.804688 203.191406 788.585938 203.191406 787.246094 L 203.191406 5.183594 C 203.191406 3.84375 203.734375 2.625 204.617188 1.742188 L 204.644531 1.714844 C 205.894531 0.480469 209.15625 -0.078125 210.777344 0.609375 L 212.039062 1.011719 L 214.273438 1.726562 L 214.382812 1.761719 L 218.066406 0.320312 C 219.851562 -0.402344 221.96875 0.320312 223.894531 0.320312 L 243.058594 0.320312 C 244.941406 0.320312 246.636719 1.292969 247.628906 2.816406 C 247.617188 2.824219 247.617188 2.824219 247.628906 2.832031 C 247.84375 3.175781 248.023438 3.546875 248.15625 3.941406 L 248.339844 3.527344 C 248.519531 3.121094 248.742188 2.753906 249.015625 2.410156 C 250.023438 1.113281 251.589844 0.320312 253.285156 0.320312 L 275.1875 0.320312 L 277.140625 2.292969 L 278.328125 0.320312 L 293.808594 0.320312 C 296.238281 0.320312 298.65625 0.804688 300.898438 1.753906 L 303.996094 1.878906 C 303.996094 1.878906 304.4375 1.480469 305.132812 1.15625 C 305.230469 1.113281 305.339844 1.066406 305.457031 1.011719 C 306.503906 0.617188 307.96875 0.472656 309.421875 1.742188 C 310.304688 2.625 310.84375 3.84375 310.84375 5.183594" fill="#ffffff"/></g><g id="change2_8"><path d="M 249.015625 2.410156 C 249.121094 53.796875 247.878906 105.203125 245.996094 156.574219 L 245.726562 156.574219 C 247.167969 105.339844 248.039062 54.085938 247.628906 2.832031 C 247.84375 3.175781 248.023438 3.546875 248.15625 3.941406 L 248.339844 3.527344 C 248.519531 3.121094 248.742188 2.753906 249.015625 2.410156" fill="#ffffff"/></g><g id="change2_9"><path d="M 235.507812 156.574219 L 233.546875 156.574219 C 231.132812 118.753906 230.734375 80.789062 231.472656 42.933594 C 232.597656 80.796875 233.050781 118.761719 235.507812 156.574219" fill="#ffffff"/></g><g id="change2_10"><path d="M 258.933594 83.121094 C 258.195312 107.601562 257.429688 132.125 255.71875 156.574219 L 253.023438 156.574219 C 256.511719 104.566406 257.394531 52.429688 256.3125 0.320312 L 259.03125 0.320312 C 259.589844 27.914062 259.589844 55.519531 258.933594 83.121094" fill="#ffffff"/></g><g id="change2_11"><path d="M 212.273438 156.574219 L 210.832031 156.574219 C 209.90625 150.152344 209.203125 143.691406 208.769531 137.203125 C 207.6875 115.402344 208.492188 93.527344 210.777344 71.835938 C 210.265625 77.265625 209.949219 82.707031 209.699219 88.148438 C 208.976562 104.457031 208.789062 120.84375 209.96875 137.125 C 210.480469 143.636719 211.265625 150.125 212.273438 156.574219" fill="#ffffff"/></g><g id="change2_12"><path d="M 227.90625 2.011719 C 223.582031 50.808594 222.570312 99.898438 224.804688 148.835938 C 224.921875 151.410156 225.050781 153.996094 225.183594 156.574219 L 222.84375 156.574219 C 222.699219 154.035156 222.5625 151.492188 222.4375 148.953125 C 219.90625 99.914062 220.726562 50.664062 225.390625 1.769531 C 225.445312 1.28125 225.492188 0.804688 225.546875 0.320312 L 228.066406 0.320312 C 228.015625 0.886719 227.960938 1.445312 227.90625 2.011719" fill="#ffffff"/></g><g id="change2_13"><path d="M 241.140625 132.410156 C 239.96875 88.871094 239.148438 45.210938 233.859375 1.949219 C 233.789062 1.410156 233.714844 0.867188 233.652344 0.320312 L 235.835938 0.320312 L 235.996094 1.699219 C 240.402344 45.113281 242.113281 88.796875 241.140625 132.410156" fill="#ffffff"/></g><g id="change2_14"><path d="M 214.273438 1.726562 C 213.976562 7.058594 213.597656 12.382812 213.203125 17.625 C 212.183594 30.265625 211.328125 42.878906 209.390625 55.429688 C 209.09375 37.292969 210.03125 19.074219 212.039062 1.011719 L 214.273438 1.726562" fill="#ffffff"/></g><g id="change2_15"><path d="M 294.394531 436.90625 L 294.375 436.984375 C 294.328125 436.984375 294.292969 436.96875 294.394531 436.859375 Z M 305.167969 278.488281 C 301.304688 327.324219 298.601562 378.246094 295.132812 426.796875 C 294.554688 422.679688 294.132812 418.507812 293.636719 414.398438 C 288.925781 369.40625 287.644531 323.855469 288.691406 278.488281 L 283.5625 278.488281 C 283.078125 306.757812 283.691406 335.046875 285.4375 363.273438 C 286.835938 384.796875 288.582031 406.328125 291.90625 427.660156 C 292.484375 430.949219 292.914062 434.175781 293.925781 437.425781 C 294.042969 437.742188 294.148438 438.003906 294.375 438.355469 C 294.671875 438.410156 294.25 439.066406 296.195312 439.09375 C 298.1875 437.660156 297.03125 438.050781 297.421875 437.777344 C 297.457031 437.652344 297.464844 437.570312 297.484375 437.472656 C 300.710938 385.730469 302.636719 330.949219 305.691406 278.488281 Z M 289.277344 79.167969 C 288.800781 57.664062 288.304688 35.546875 283.457031 14.507812 C 282.859375 12.039062 281.214844 5.480469 278.914062 0.320312 L 278.328125 0.320312 L 277.140625 2.292969 L 275.1875 0.320312 L 270.066406 0.320312 C 267.707031 30.113281 266.527344 59.960938 265.105469 89.808594 C 263.835938 112.050781 263.996094 134.359375 262.410156 156.574219 L 263.546875 156.574219 C 265.691406 134.4375 266.132812 112.132812 267.898438 89.960938 C 269.988281 60.304688 271.367188 30.519531 274.347656 0.933594 C 274.734375 1.769531 275.105469 2.636719 275.457031 3.5 C 276.96875 7.335938 278.078125 11.417969 279.007812 15.535156 C 283.601562 36.230469 283.890625 58.121094 284.195312 79.277344 C 284.664062 104.863281 285.195312 130.761719 285.492188 156.574219 L 290.871094 156.574219 C 290.519531 130.734375 289.824219 104.878906 289.277344 79.167969" fill="#ffffff"/></g><g id="change2_16"><path d="M 310.84375 420.21875 L 310.84375 425.011719 C 308.824219 449.292969 306.511719 473.535156 303.59375 497.726562 C 301.671875 512.988281 299.824219 528.285156 296.503906 543.339844 C 295.367188 547.78125 294.511719 552.464844 291.996094 556.429688 C 286.339844 563.242188 283.3125 547.078125 282.4375 543.59375 C 277.320312 518.421875 275.304688 492.769531 273.457031 467.203125 C 268.859375 404.34375 270.113281 341.335938 274.058594 278.488281 L 275.050781 278.488281 C 271.121094 361.75 271.214844 445.320312 282.175781 528.023438 C 282.925781 533.070312 283.761719 538.105469 284.824219 543.070312 C 285.367188 545.539062 285.960938 548.007812 286.71875 550.386719 C 287.375 552.214844 287.914062 554.304688 289.304688 555.628906 C 289.355469 555.65625 289.382812 555.671875 289.402344 555.683594 C 289.375 555.734375 289.800781 555.457031 290.078125 555.03125 C 292.339844 551.375 293.167969 546.96875 294.238281 542.816406 C 297.59375 527.878906 299.734375 512.671875 301.816406 497.5 C 305.113281 472.804688 308.097656 445.789062 310.84375 420.21875" fill="#ffffff"/></g><g id="change2_17"><path d="M 303.195312 121.996094 C 302.734375 125.808594 302.339844 129.710938 301.203125 133.464844 C 300.726562 134.800781 300.078125 136.710938 298.132812 136.527344 C 296.914062 136.296875 296.457031 135.304688 296.042969 134.519531 C 295.699219 133.710938 295.265625 132.601562 295.195312 131.773438 C 295.421875 120.410156 295.472656 109.03125 295.511719 97.664062 C 295.4375 65.105469 295.710938 32.265625 288.753906 0.320312 L 288.90625 0.320312 C 291.347656 9.894531 293.3125 19.589844 294.664062 29.390625 C 296.121094 40.726562 296.710938 52.113281 297.222656 63.492188 C 298.167969 86.203125 298.203125 108.925781 297.878906 131.644531 C 298.015625 132.160156 298.1875 132.734375 298.410156 133.230469 C 298.773438 132.402344 298.988281 131.410156 299.203125 130.546875 C 299.824219 127.683594 300.214844 124.691406 300.554688 121.699219 C 304.105469 82.601562 304.105469 40.789062 305.132812 1.15625 C 305.230469 1.113281 305.339844 1.066406 305.457031 1.011719 C 305.539062 5.210938 305.617188 9.851562 305.644531 12.714844 C 305.898438 49.03125 306.457031 85.808594 303.195312 121.996094" fill="#ffffff"/></g><g id="change2_18"><path d="M 276.5625 148.511719 C 276.347656 151.257812 276.105469 153.953125 275.835938 156.574219 L 270.445312 156.574219 C 270.941406 150.609375 271.457031 143.996094 271.960938 136.699219 C 274.410156 101.304688 276.03125 75.628906 277.25 75.601562 C 278.988281 75.554688 279.050781 117.203125 276.5625 148.511719" fill="#ffffff"/></g><g id="change2_19"><path d="M 280.171875 418.863281 C 284.351562 437.417969 286.738281 456.375 287.398438 475.382812 C 287.519531 478.550781 287.597656 481.71875 287.664062 484.886719 C 287.886719 488.714844 287.480469 492.820312 288.429688 496.488281 C 288.496094 496.648438 288.5625 496.617188 288.496094 496.628906 C 289.773438 495.253906 290.199219 493.046875 290.84375 491.230469 C 293.484375 482.121094 295.199219 472.761719 297.015625 463.457031 C 299.355469 451.007812 301.351562 438.496094 302.867188 425.917969 C 301.046875 444.84375 298.078125 463.664062 294.007812 482.238281 C 293.5 483.863281 290.328125 500.871094 287.648438 496.917969 C 287.253906 496.078125 287.214844 495.296875 287.113281 494.433594 C 286.855469 491.230469 286.875 488.074219 286.804688 484.902344 C 286.75 481.738281 286.6875 478.574219 286.582031 475.410156 C 285.964844 456.429688 283.875 437.496094 280.171875 418.863281" fill="#ffffff"/></g><g id="change2_20"><path d="M 261.15625 282.84375 C 262.566406 321.980469 262.875 361.328125 258.398438 400.296875 C 257.410156 410.03125 255.222656 419.699219 253.34375 429.285156 C 250.804688 445.273438 249.15625 461.542969 248.488281 477.714844 C 247.976562 493.066406 249.679688 508.433594 254.699219 522.910156 C 255.257812 524.519531 257.964844 532.789062 258.539062 534.5625 C 264.359375 552.566406 270.570312 572.59375 276.730469 590.355469 C 279 596.371094 280.847656 602.992188 284.132812 608.445312 C 284.09375 608.421875 284.09375 608.386719 283.804688 608.273438 C 283.710938 608.242188 283.4375 608.171875 283.183594 608.210938 C 283.078125 608.121094 282.199219 608.597656 282.121094 608.828125 C 281.925781 609.109375 281.945312 609.140625 281.90625 609.257812 C 281.890625 603.597656 280.746094 597.863281 280.03125 592.226562 C 278.136719 579.335938 276.035156 566.453125 274.003906 553.558594 C 270.988281 534.96875 268.023438 514.203125 265.613281 495.394531 C 264.890625 489.65625 263.710938 481.617188 263.183594 475.910156 C 261.589844 459.714844 261.582031 443.101562 262.296875 426.84375 C 262.324219 425.394531 262.441406 423.832031 262.265625 422.464844 C 262.386719 422.714844 262.75 423.023438 263.230469 422.976562 C 263.5625 422.9375 263.667969 422.828125 263.734375 422.785156 C 263.78125 422.746094 263.796875 422.726562 263.796875 422.726562 C 263.785156 422.730469 263.691406 422.875 263.628906 423.015625 C 260.988281 430.121094 260.125 437.828125 259.0625 445.367188 C 255.890625 471.214844 257.066406 497.585938 262.996094 522.988281 C 254.6875 491.472656 253.332031 457.679688 260.316406 425.6875 C 260.652344 424.445312 260.972656 423.203125 261.527344 421.996094 C 262.269531 420.132812 264.433594 420.097656 264.648438 422.457031 C 264.800781 423.945312 264.734375 425.429688 264.722656 426.90625 C 264.210938 443.078125 264.609375 459.554688 266.253906 475.617188 C 267.464844 486.605469 269.96875 503.242188 271.441406 514.359375 C 275.523438 545.109375 281.691406 575.574219 285.324219 606.402344 C 285.382812 607.628906 285.597656 608.96875 285.246094 610.285156 C 285.195312 610.425781 285.148438 610.605469 284.917969 610.925781 C 284.789062 611.246094 283.808594 611.765625 283.601562 611.683594 C 283.25 611.734375 282.867188 611.65625 282.679688 611.582031 C 282.019531 611.289062 281.808594 611.097656 281.449219 610.691406 C 280.132812 609.003906 279.40625 607.105469 278.621094 605.367188 C 269.683594 583.003906 262.640625 558.589844 255.175781 535.644531 C 253.734375 531.160156 251.253906 523.707031 249.882812 519.308594 C 247.851562 512.148438 246.414062 504.785156 245.738281 497.382812 C 244.480469 484.253906 245.3125 471.046875 246.621094 457.984375 C 247.976562 444.980469 249.277344 431.839844 252.480469 419.128906 C 261.398438 374.511719 260.921875 328.21875 261.15625 282.84375" fill="#ffffff"/></g><g id="change2_21"><path d="M 234.6875 457.292969 C 232.492188 479.195312 233.492188 501.367188 236.617188 523.140625 C 233.039062 501.382812 231.589844 479.195312 233.347656 457.175781 C 235.265625 435.191406 238.71875 413.425781 240.871094 391.472656 C 244.871094 353.949219 247.402344 316.21875 246.761719 278.488281 L 251.78125 278.488281 C 251.601562 327.425781 246.132812 376.191406 239.066406 424.5625 C 237.492188 435.472656 235.777344 446.355469 234.6875 457.292969" fill="#ffffff"/></g><g id="change2_22"><path d="M 227.554688 278.488281 C 227.222656 310.425781 225.066406 342.613281 223.429688 374.390625 C 224.175781 343.453125 225.203125 309.441406 225.355469 278.488281 L 227.554688 278.488281" fill="#ffffff"/></g><g id="change2_23"><path d="M 235.796875 278.488281 C 233.816406 331.660156 232.507812 384.878906 227.878906 437.914062 C 227.328125 443.492188 226.960938 448.878906 225.769531 454.4375 C 225.5 455.402344 225.273438 456.636719 224.417969 457.582031 C 224.03125 457.996094 223.078125 458.492188 222.390625 458.246094 C 221.921875 458.15625 221.492188 457.886719 221.203125 457.589844 C 220.933594 457.285156 220.707031 456.996094 220.546875 456.671875 C 218.726562 452.6875 218.347656 448.339844 217.617188 444.128906 C 212.753906 406.011719 212.519531 367.425781 214.390625 329.09375 C 215.023438 318.144531 215.878906 307.207031 216.960938 296.296875 C 217.617188 290.359375 218.210938 284.414062 218.949219 278.488281 L 221.96875 278.488281 C 221.273438 284.53125 220.734375 290.585938 220.105469 296.605469 C 215.867188 345.441406 215.222656 394.902344 221.058594 443.636719 C 221.5625 446.570312 221.894531 449.636719 222.699219 452.492188 C 223.671875 447.671875 224.105469 442.535156 224.617188 437.617188 C 225.679688 426.839844 227.734375 399.785156 228.644531 388.578125 C 231.039062 352.074219 232.726562 315.144531 235.148438 278.488281 L 235.796875 278.488281" fill="#ffffff"/></g><g id="change2_24"><path d="M 253.582031 673.574219 C 255.203125 699.027344 256.382812 724.558594 255.78125 750.074219 C 255.601562 753.820312 255.628906 757.378906 254.859375 761.136719 C 254.753906 761.488281 254.636719 762.011719 254.230469 762.351562 C 254.140625 762.453125 253.707031 762.667969 253.421875 762.597656 C 253.03125 762.523438 252.941406 762.390625 252.789062 762.273438 C 252.292969 761.703125 252.140625 761.019531 251.988281 760.488281 C 251.292969 757.785156 250.941406 755.054688 250.554688 752.316406 C 249.113281 741.46875 248.238281 730.566406 247.582031 719.65625 L 250.5 741.308594 C 251.273438 746.695312 251.914062 752.109375 252.976562 757.441406 C 253.105469 758.019531 253.230469 758.675781 253.394531 759.300781 C 254.257812 752.6875 253.96875 745.792969 254.039062 739.125 C 253.898438 717.296875 252.734375 695.503906 251.132812 673.738281 C 250.609375 666.476562 250.105469 659.214844 249.410156 652 C 248.996094 648.71875 248.871094 645.132812 247.976562 641.953125 C 247.203125 643.765625 246.816406 645.820312 246.347656 647.757812 C 244.851562 654.773438 243.976562 661.988281 243.292969 669.1875 C 239.871094 710.097656 242.132812 751.957031 251.835938 791.9375 L 248.121094 791.8125 C 243.726562 773.039062 241.183594 753.820312 239.691406 734.621094 C 238.140625 712.746094 238.203125 690.738281 240.300781 668.898438 C 241.453125 659.34375 242.246094 649.476562 245.652344 640.332031 C 246.050781 639.421875 246.90625 637.972656 248.222656 638.027344 C 249.601562 638.078125 250.238281 639.675781 250.511719 640.691406 C 252.679688 651.550781 252.691406 662.601562 253.582031 673.574219" fill="#ffffff"/></g><g id="change2_25"><path d="M 267.328125 684.746094 C 267.347656 713.910156 266.609375 743.027344 265.726562 772.171875 C 265.492188 778.730469 265.285156 785.28125 264.960938 791.839844 L 261.222656 791.964844 C 262.285156 770.804688 262.472656 749.585938 262.941406 728.40625 C 263.230469 699.386719 264.105469 670.242188 261.582031 641.324219 C 258.230469 612.691406 252.878906 583.84375 239.789062 557.898438 C 235.789062 549.84375 231.339844 541.601562 228.3125 532.941406 C 221.507812 513.949219 219.023438 493.257812 221.363281 473.300781 C 221.535156 494.996094 225.167969 516.726562 233.527344 536.761719 C 236.265625 543.402344 239.789062 549.699219 243.078125 556.277344 C 253.058594 575.933594 259.195312 597.421875 262.527344 619.171875 C 266.5625 640.792969 267.394531 662.820312 267.328125 684.746094" fill="#ffffff"/></g><g id="change2_26"><path d="M 258.628906 655.476562 C 248.878906 621.144531 236.871094 587.765625 222.804688 554.953125 C 219.464844 546.671875 216.265625 538.292969 213.5 529.769531 C 209.011719 515.898438 205.5625 501.664062 203.191406 487.257812 L 203.191406 475.507812 C 203.292969 476.066406 203.390625 476.617188 203.492188 477.175781 C 208.175781 503.421875 215.851562 528.988281 226.148438 553.59375 C 229.472656 561.84375 232.925781 570.078125 236.132812 578.421875 C 245.691406 603.429688 253.3125 629.25 258.628906 655.476562" fill="#ffffff"/></g><g id="change2_27"><path d="M 235.445312 646.222656 C 233.609375 680.242188 229.039062 714.667969 229.859375 748.777344 C 230.195312 762.992188 231.339844 777.207031 233.328125 791.324219 L 231.914062 791.28125 C 227.210938 766 225.867188 740.117188 227.121094 714.441406 C 228.230469 691.945312 230.554688 668.449219 232.058594 646 C 232.96875 634.691406 233.570312 623.414062 230.933594 612.324219 C 228.328125 601.230469 223.039062 590.960938 219.878906 580.015625 C 216.492188 569.070312 213.789062 557.914062 211.933594 546.601562 C 215.804688 563.320312 221.003906 579.628906 227.789062 595.367188 C 230.023438 600.59375 232.285156 605.988281 233.652344 611.675781 C 236.679688 622.898438 236.210938 634.773438 235.445312 646.222656" fill="#ffffff"/></g><g id="change2_28"><path d="M 240.246094 791.550781 L 237.085938 791.453125 C 236.148438 787.523438 235.429688 783.542969 234.878906 779.542969 C 233.570312 769.480469 233.320312 759.21875 234.933594 749.171875 C 236.183594 759.199219 237.078125 769.109375 238.445312 779.066406 C 238.988281 783.246094 239.597656 787.398438 240.246094 791.550781" fill="#ffffff"/></g><g id="change2_29"><path d="M 218.597656 514.25 C 216.804688 508.925781 215.519531 503.429688 214.707031 497.859375 C 212.328125 481.203125 213.066406 464.148438 210.175781 447.609375 C 209.285156 442.09375 208.085938 436.644531 206.625 431.265625 C 205.4375 427.210938 204.21875 423.011719 203.191406 418.859375 L 203.191406 401.164062 C 204.273438 408.308594 205.328125 415.417969 206.960938 422.488281 C 208.960938 430.652344 211.085938 438.941406 212.101562 447.320312 C 215.402344 469.589844 211.859375 492.535156 218.597656 514.25" fill="#ffffff"/></g><g id="change2_30"><path d="M 208.707031 774.9375 C 210.480469 779.585938 212.878906 786.15625 214.726562 790.757812 C 214.390625 790.769531 213.949219 790.792969 213.453125 790.832031 C 211.742188 785.570312 210.210938 780.253906 208.707031 774.9375" fill="#ffffff"/></g><g id="change2_31"><path d="M 221.824219 790.949219 L 218.867188 790.847656 C 218.824219 790.597656 218.777344 790.351562 218.734375 790.101562 C 217.699219 784.480469 216.726562 778.839844 215.804688 773.191406 C 213.941406 761.875 212.527344 750.46875 211.570312 739.035156 C 209.4375 716.207031 210.914062 693.097656 212.164062 670.304688 C 213.878906 636.125 211.941406 601.960938 208.09375 567.914062 C 214.6875 601.59375 217.5625 636.144531 216.417969 670.476562 C 216.039062 681.945312 215.257812 693.332031 215.03125 704.683594 C 214.375 727.433594 216.339844 750.117188 219.285156 772.675781 C 220.066406 778.777344 220.988281 784.859375 221.824219 790.949219" fill="#ffffff"/></g><g id="change2_32"><path d="M 282.78125 706.8125 C 281.097656 735.019531 280.230469 763.109375 279.960938 791.324219 L 278.511719 791.371094 C 277.03125 771.488281 276.753906 751.507812 277.257812 731.566406 C 277.644531 714.964844 279.160156 698.367188 278.808594 681.800781 C 278.355469 656.910156 274.429688 632.339844 268.519531 608.097656 C 277.132812 631.601562 282.050781 656.601562 283.070312 681.683594 C 283.382812 690.082031 283.148438 698.476562 282.78125 706.8125" fill="#ffffff"/></g><g id="change2_33"><path d="M 310.84375 552.257812 L 310.84375 556.058594 C 308.734375 550.527344 306.375 546.203125 304.402344 547.394531 C 299.113281 552.734375 297.105469 578.320312 296.464844 586.664062 C 295.753906 598.84375 296.1875 610.996094 297.601562 623.132812 C 298.304688 629.242188 298.835938 635.46875 298.960938 641.691406 C 299.265625 654.105469 297.71875 666.367188 296.925781 678.683594 C 296.511719 684.792969 296.175781 690.910156 295.90625 697.035156 C 294.445312 728.28125 294.851562 759.515625 296.222656 790.769531 L 295.078125 790.804688 C 290.511719 747.390625 290.105469 703.449219 293.863281 659.988281 C 294.988281 647.757812 294.699219 635.765625 293.375 623.566406 C 291.429688 605.097656 292.070312 586.277344 295.445312 567.996094 C 296.394531 563.269531 300.566406 537.601562 308.375 547.410156 C 309.429688 548.96875 310.203125 550.601562 310.84375 552.257812" fill="#ffffff"/></g><g id="change2_34"><path d="M 310.84375 666.242188 C 302.339844 707.054688 299.925781 748.992188 304.347656 790.550781 C 304.105469 790.523438 303.890625 790.507812 303.710938 790.507812 L 303.050781 790.523438 C 295.367188 751.308594 296.890625 710.332031 305.925781 671.46875 C 307.386719 665.421875 309.023438 659.394531 310.84375 653.433594 L 310.84375 666.242188" fill="#ffffff"/></g><g id="change2_35"><path d="M 225.105469 205.628906 C 224.050781 204.304688 223.390625 202.484375 222.742188 200.863281 C 220.859375 195.828125 219.429688 190.566406 218.085938 185.3125 C 216.914062 180.511719 215.824219 175.683594 214.84375 170.835938 C 213.878906 166.105469 213.011719 161.351562 212.273438 156.574219 L 222.84375 156.574219 C 223.113281 161.332031 223.410156 166.089844 223.714844 170.835938 C 223.949219 174.429688 224.183594 178.027344 224.429688 181.609375 C 224.789062 187.042969 225.167969 192.484375 225.363281 197.890625 C 225.429688 200.351562 225.589844 203.421875 225.105469 205.628906" fill="#ffffff"/></g><g id="change3_1"><path d="M 227.023438 206.304688 C 226.835938 206.808594 226.660156 207.351562 226.058594 207.730469 C 225.339844 208.171875 224.417969 207.863281 223.949219 207.359375 C 222.355469 205.664062 221.761719 203.566406 220.933594 201.539062 C 219.050781 196.339844 217.671875 191.042969 216.382812 185.726562 C 215.230469 180.789062 214.167969 175.828125 213.222656 170.835938 C 212.3125 166.097656 211.507812 161.351562 210.832031 156.574219 L 212.273438 156.574219 C 213.011719 161.351562 213.878906 166.105469 214.84375 170.835938 C 215.824219 175.683594 216.914062 180.511719 218.085938 185.3125 C 219.429688 190.566406 220.859375 195.828125 222.742188 200.863281 C 223.390625 202.484375 224.050781 204.304688 225.105469 205.628906 C 225.589844 203.421875 225.429688 200.351562 225.363281 197.890625 C 225.167969 192.484375 224.789062 187.042969 224.429688 181.609375 C 224.183594 178.027344 223.949219 174.429688 223.714844 170.835938 C 223.410156 166.089844 223.113281 161.332031 222.84375 156.574219 L 225.183594 156.574219 C 225.429688 161.332031 225.699219 166.078125 225.988281 170.835938 C 226.195312 174.378906 226.417969 177.925781 226.636719 181.46875 C 226.960938 186.910156 227.328125 192.351562 227.492188 197.828125 C 227.492188 200.675781 227.726562 203.484375 227.023438 206.304688" fill="#ffffff"/></g><g id="change2_36"><path d="M 253.023438 156.574219 C 252.707031 161.332031 252.363281 166.089844 251.996094 170.835938 C 251.707031 174.765625 251.390625 178.691406 251.058594 182.621094 C 249.636719 196.3125 248.589844 210.179688 245.210938 223.511719 C 244.898438 224.441406 244.570312 225.683594 244.058594 226.53125 C 243.84375 226.054688 243.679688 225.53125 243.507812 224.992188 C 242.039062 219.765625 241.257812 214.234375 240.453125 208.828125 C 238.816406 196.195312 237.546875 183.519531 236.535156 170.835938 C 236.15625 166.089844 235.816406 161.332031 235.507812 156.574219 L 245.726562 156.574219 C 245.589844 161.332031 245.453125 166.078125 245.3125 170.835938 C 245.140625 176.539062 244.960938 182.234375 244.78125 187.925781 C 245.015625 182.234375 245.238281 176.53125 245.453125 170.835938 C 245.644531 166.078125 245.824219 161.332031 245.996094 156.574219 L 253.023438 156.574219" fill="#ffffff"/></g><g id="change3_2"><path d="M 245.996094 156.574219 C 245.824219 161.332031 245.644531 166.078125 245.453125 170.835938 C 245.238281 176.53125 245.015625 182.234375 244.78125 187.925781 C 244.960938 182.234375 245.140625 176.539062 245.3125 170.835938 C 245.453125 166.078125 245.589844 161.332031 245.726562 156.574219 L 245.996094 156.574219" fill="#ffffff"/></g><g id="change3_3"><path d="M 255.71875 156.574219 C 255.394531 161.332031 255.023438 166.089844 254.617188 170.835938 C 253.320312 185.917969 251.601562 200.964844 249.246094 215.9375 C 248.320312 220.082031 247.878906 224.691406 245.519531 228.359375 C 245.246094 228.65625 244.796875 229.097656 244.273438 229.179688 C 244.113281 229.226562 243.726562 229.261719 243.355469 229.109375 C 242.03125 228.421875 241.816406 226.800781 241.375 225.628906 C 239.859375 220.179688 239.121094 214.683594 238.3125 209.125 C 236.789062 196.386719 235.554688 183.621094 234.554688 170.835938 C 234.183594 166.089844 233.851562 161.332031 233.546875 156.574219 L 235.507812 156.574219 C 235.816406 161.332031 236.15625 166.089844 236.535156 170.835938 C 237.546875 183.519531 238.816406 196.195312 240.453125 208.828125 C 241.257812 214.234375 242.039062 219.765625 243.507812 224.992188 C 243.679688 225.53125 243.84375 226.054688 244.058594 226.53125 C 244.570312 225.683594 244.898438 224.441406 245.210938 223.511719 C 248.589844 210.179688 249.636719 196.3125 251.058594 182.621094 C 251.390625 178.691406 251.707031 174.765625 251.996094 170.835938 C 252.363281 166.089844 252.707031 161.332031 253.023438 156.574219 L 255.71875 156.574219" fill="#ffffff"/></g><g id="change3_4"><path d="M 263.546875 156.574219 C 263.203125 160.132812 262.816406 163.691406 262.367188 167.242188 C 262.238281 168.378906 262.09375 169.585938 261.941406 170.835938 C 261.066406 177.808594 259.769531 186.207031 259.769531 192.585938 C 259.617188 185.3125 260.484375 178.070312 261.175781 170.835938 C 261.292969 169.601562 261.410156 168.378906 261.511719 167.144531 C 261.859375 163.621094 262.15625 160.097656 262.410156 156.574219 L 263.546875 156.574219" fill="#ffffff"/></g><g id="change3_5"><path d="M 275.835938 156.574219 C 275.320312 161.621094 274.726562 166.402344 274.097656 170.835938 C 271.527344 188.828125 268.304688 201.015625 267.050781 200.800781 C 266.023438 200.628906 267.292969 191.386719 269.203125 170.835938 C 269.601562 166.574219 270.015625 161.828125 270.445312 156.574219 L 275.835938 156.574219" fill="#ffffff"/></g><g id="change3_6"><path d="M 290.382812 234.214844 C 289.851562 244.199219 289.410156 254.207031 289.085938 264.226562 C 288.925781 268.972656 288.789062 273.730469 288.691406 278.488281 L 283.5625 278.488281 C 283.644531 273.730469 283.753906 268.972656 283.898438 264.226562 C 283.933594 262.757812 283.988281 261.289062 284.03125 259.820312 C 284.71875 244.550781 285.628906 223.332031 285.644531 208.277344 C 285.734375 195.863281 285.707031 183.367188 285.617188 170.835938 C 285.582031 166.089844 285.535156 161.332031 285.492188 156.574219 L 290.871094 156.574219 C 290.925781 161.332031 290.980469 166.089844 291.015625 170.835938 C 291.1875 192.007812 291.070312 213.160156 290.382812 234.214844" fill="#ffffff"/></g><g id="change2_37"><path d="M 285.644531 208.277344 C 285.628906 223.332031 284.71875 244.550781 284.03125 259.820312 C 283.988281 261.289062 283.933594 262.757812 283.898438 264.226562 C 283.753906 268.972656 283.644531 273.730469 283.5625 278.488281 L 275.050781 278.488281 C 275.277344 273.730469 275.511719 268.972656 275.761719 264.226562 C 276.5 250.019531 277.355469 235.828125 278.277344 221.65625 C 277.085938 235.839844 275.980469 250.027344 274.996094 264.226562 C 274.671875 268.972656 274.355469 273.730469 274.058594 278.488281 L 251.78125 278.488281 C 251.808594 273.730469 251.769531 268.980469 251.691406 264.226562 C 251.664062 262.683594 251.628906 261.144531 251.589844 259.605469 L 246.183594 259.773438 C 246.246094 261.261719 246.3125 262.738281 246.375 264.226562 C 246.554688 268.980469 246.679688 273.730469 246.761719 278.488281 L 235.796875 278.488281 C 235.96875 273.730469 236.148438 268.972656 236.347656 264.226562 C 236.429688 262 236.527344 259.765625 236.617188 257.539062 C 236.445312 259.765625 236.285156 261.992188 236.132812 264.226562 C 235.789062 268.972656 235.464844 273.730469 235.148438 278.488281 L 227.554688 278.488281 C 227.609375 273.730469 227.617188 268.972656 227.582031 264.226562 C 227.570312 262.648438 227.554688 261.070312 227.527344 259.496094 C 227.417969 257.730469 227.390625 255.890625 226.925781 254.089844 C 226.6875 253.496094 226.5 252.730469 225.363281 252.558594 C 223.769531 252.578125 223.382812 254.277344 222.984375 255.476562 C 222.265625 258.378906 221.652344 261.296875 221.113281 264.226562 C 220.238281 268.953125 219.554688 273.710938 218.949219 278.488281 L 203.191406 278.488281 L 203.191406 156.574219 L 210.832031 156.574219 C 211.507812 161.351562 212.3125 166.097656 213.222656 170.835938 C 214.167969 175.828125 215.230469 180.789062 216.382812 185.726562 C 217.671875 191.042969 219.050781 196.339844 220.933594 201.539062 C 221.761719 203.566406 222.355469 205.664062 223.949219 207.359375 C 224.417969 207.863281 225.339844 208.171875 226.058594 207.730469 C 226.660156 207.351562 226.835938 206.808594 227.023438 206.304688 C 227.726562 203.484375 227.492188 200.675781 227.492188 197.828125 C 227.328125 192.351562 226.960938 186.910156 226.636719 181.46875 C 226.417969 177.925781 226.195312 174.378906 225.988281 170.835938 C 225.699219 166.078125 225.429688 161.332031 225.183594 156.574219 L 233.546875 156.574219 C 233.851562 161.332031 234.183594 166.089844 234.554688 170.835938 C 235.554688 183.621094 236.789062 196.386719 238.3125 209.125 C 239.121094 214.683594 239.859375 220.179688 241.375 225.628906 C 241.816406 226.800781 242.03125 228.421875 243.355469 229.109375 C 243.726562 229.261719 244.113281 229.226562 244.273438 229.179688 C 244.796875 229.097656 245.246094 228.65625 245.519531 228.359375 C 247.878906 224.691406 248.320312 220.082031 249.246094 215.9375 C 251.601562 200.964844 253.320312 185.917969 254.617188 170.835938 C 255.023438 166.089844 255.394531 161.332031 255.71875 156.574219 L 262.410156 156.574219 C 262.15625 160.097656 261.859375 163.621094 261.511719 167.144531 C 261.410156 168.378906 261.292969 169.601562 261.175781 170.835938 C 260.484375 178.070312 259.617188 185.3125 259.769531 192.585938 C 259.769531 186.207031 261.066406 177.808594 261.941406 170.835938 C 262.09375 169.585938 262.238281 168.378906 262.367188 167.242188 C 262.816406 163.691406 263.203125 160.132812 263.546875 156.574219 L 270.445312 156.574219 C 270.015625 161.828125 269.601562 166.574219 269.203125 170.835938 C 267.292969 191.386719 266.023438 200.628906 267.050781 200.800781 C 268.304688 201.015625 271.527344 188.828125 274.097656 170.835938 C 274.726562 166.402344 275.320312 161.621094 275.835938 156.574219 L 285.492188 156.574219 C 285.535156 161.332031 285.582031 166.089844 285.617188 170.835938 C 285.707031 183.367188 285.734375 195.863281 285.644531 208.277344" fill="#ffffff"/></g><g id="change2_38"><path d="M 225.363281 275.964844 C 225.363281 276.800781 225.355469 277.640625 225.355469 278.488281 L 221.96875 278.488281 C 222.5 273.710938 223.121094 268.945312 223.933594 264.226562 C 224.238281 262.441406 224.570312 260.65625 224.949219 258.882812 C 225.113281 260.65625 225.203125 262.441406 225.246094 264.226562 C 225.355469 268.136719 225.273438 272.074219 225.363281 275.964844" fill="#ffffff"/></g><g id="change3_7"><path d="M 227.554688 278.488281 L 225.355469 278.488281 C 225.355469 277.640625 225.363281 276.800781 225.363281 275.964844 C 225.273438 272.074219 225.355469 268.136719 225.246094 264.226562 C 225.203125 262.441406 225.113281 260.65625 224.949219 258.882812 C 224.570312 260.65625 224.238281 262.441406 223.933594 264.226562 C 223.121094 268.945312 222.5 273.710938 221.96875 278.488281 L 218.949219 278.488281 C 219.554688 273.710938 220.238281 268.953125 221.113281 264.226562 C 221.652344 261.296875 222.265625 258.378906 222.984375 255.476562 C 223.382812 254.277344 223.769531 252.578125 225.363281 252.558594 C 226.5 252.730469 226.6875 253.496094 226.925781 254.089844 C 227.390625 255.890625 227.417969 257.730469 227.527344 259.496094 C 227.554688 261.070312 227.570312 262.648438 227.582031 264.226562 C 227.617188 268.972656 227.609375 273.730469 227.554688 278.488281" fill="#ffffff"/></g><g id="change3_8"><path d="M 236.617188 257.539062 C 236.527344 259.765625 236.429688 262 236.347656 264.226562 C 236.148438 268.972656 235.96875 273.730469 235.796875 278.488281 L 235.148438 278.488281 C 235.464844 273.730469 235.789062 268.972656 236.132812 264.226562 C 236.285156 261.992188 236.445312 259.765625 236.617188 257.539062" fill="#ffffff"/></g><g id="change3_9"><path d="M 251.78125 278.488281 L 246.761719 278.488281 C 246.679688 273.730469 246.554688 268.980469 246.375 264.226562 C 246.3125 262.738281 246.246094 261.261719 246.183594 259.773438 L 251.589844 259.605469 C 251.628906 261.144531 251.664062 262.683594 251.691406 264.226562 C 251.769531 268.980469 251.808594 273.730469 251.78125 278.488281" fill="#ffffff"/></g><g id="change3_10"><path d="M 278.277344 221.65625 C 277.355469 235.828125 276.5 250.019531 275.761719 264.226562 C 275.511719 268.972656 275.277344 273.730469 275.050781 278.488281 L 274.058594 278.488281 C 274.355469 273.730469 274.671875 268.972656 274.996094 264.226562 C 275.980469 250.027344 277.085938 235.839844 278.277344 221.65625" fill="#ffffff"/></g><g id="change2_39"><path d="M 310.84375 156.574219 L 310.84375 278.488281 L 305.691406 278.488281 C 305.960938 273.710938 306.25 268.953125 306.546875 264.226562 C 306.746094 261.0625 306.953125 257.917969 307.160156 254.785156 C 306.878906 257.917969 306.609375 261.0625 306.339844 264.226562 C 305.933594 268.953125 305.546875 273.710938 305.167969 278.488281 L 288.691406 278.488281 C 288.789062 273.730469 288.925781 268.972656 289.085938 264.226562 C 289.410156 254.207031 289.851562 244.199219 290.382812 234.214844 C 291.070312 213.160156 291.1875 192.007812 291.015625 170.835938 C 290.980469 166.089844 290.925781 161.332031 290.871094 156.574219 L 310.84375 156.574219" fill="#ffffff"/></g><g id="change3_11"><path d="M 307.160156 254.785156 C 306.953125 257.917969 306.746094 261.0625 306.546875 264.226562 C 306.25 268.953125 305.960938 273.710938 305.691406 278.488281 L 305.167969 278.488281 C 305.546875 273.710938 305.933594 268.953125 306.339844 264.226562 C 306.609375 261.0625 306.878906 257.917969 307.160156 254.785156" fill="#ffffff"/></g><g clip-path="url(#b)" id="change1_2"><path d="M 512.804688 176.46875 L 512.804688 189.925781 L 511.226562 193.683594 L 510.730469 194.863281 L 510.875 195.820312 L 512.101562 203.746094 L 512.246094 204.675781 L 512.804688 208.3125 L 512.804688 221.890625 C 512.804688 224.304688 512.21875 226.675781 511.089844 228.792969 C 511.074219 228.847656 511.035156 228.910156 511.011719 228.964844 C 510.757812 229.421875 510.488281 229.863281 510.191406 230.296875 L 511.082031 231.980469 C 512.207031 234.117188 512.804688 236.496094 512.804688 238.910156 L 512.804688 257.207031 L 512.730469 257.683594 L 512.722656 257.773438 L 511.53125 265.792969 C 511.53125 268.488281 510.820312 270.65625 508.199219 270.65625 L 5.972656 270.65625 C 3.578125 270.65625 3.136719 268.847656 3.082031 266.476562 L 3.082031 266.34375 C 3.070312 266.164062 3.070312 265.980469 3.070312 265.792969 L 1.945312 260.523438 L 1.539062 258.65625 L 1.234375 257.207031 L 1.234375 245.839844 C 1.234375 245.613281 1.242188 245.394531 1.269531 245.179688 L 1.269531 245.171875 C 1.371094 244.035156 1.746094 242.953125 2.371094 242 C 2.585938 241.667969 2.765625 241.324219 2.917969 240.972656 C 2.972656 240.863281 3.019531 240.746094 3.054688 240.640625 C 3.351562 239.847656 3.503906 239.019531 3.503906 238.179688 C 3.503906 237.414062 3.378906 236.648438 3.125 235.910156 L 2.929688 235.316406 L 2.765625 234.839844 L 1.605469 231.386719 C 1.351562 230.664062 1.234375 229.902344 1.234375 229.136719 L 1.234375 203.378906 L 1.433594 202.105469 L 2.304688 196.367188 L 2.511719 195.007812 L 2.9375 192.261719 L 3.296875 189.925781 L 1.523438 182.664062 L 0.863281 179.972656 L 0.800781 179.71875 L 0 176.46875 L 1.304688 169.664062 L 1.460938 168.855469 L 1.539062 168.449219 C 1.539062 165.765625 2.125 163.015625 4.746094 163.015625 L 509.855469 163.015625 C 510.46875 163.015625 510.867188 163.132812 511.109375 163.359375 C 511.289062 163.519531 511.390625 163.738281 511.425781 164.007812 C 511.558594 164.898438 511.074219 166.296875 511.074219 167.882812 L 512.054688 172.738281 L 512.550781 175.222656 L 512.804688 176.46875" fill="#ffffff"/></g><g id="change2_40"><path d="M 271.898438 173.683594 C 269.769531 178.339844 253.925781 183.25 248.796875 185.117188 C 212.023438 196.863281 173.632812 203.277344 135.121094 205.339844 C 90.667969 207.46875 46.28125 202.648438 2.304688 196.367188 L 2.511719 195.007812 C 33.785156 198.9375 65.226562 201.808594 96.660156 202.773438 C 134.984375 203.710938 173.355469 200.097656 210.753906 191.691406 C 226.292969 188.171875 241.753906 184.144531 256.664062 178.574219 C 260.375 177.015625 264.464844 175.675781 267.664062 173.277344 C 264.4375 172.898438 260.933594 173.484375 257.582031 173.683594 C 251.246094 174.277344 244.878906 175.042969 238.519531 175.773438 C 219.941406 177.90625 199.625 180.097656 181.101562 181.558594 C 142.75 184.296875 104.191406 186.539062 65.757812 184.378906 C 44.476562 183.378906 22.398438 181.285156 0.863281 179.972656 L 0.800781 179.71875 C 35.261719 181.042969 69.703125 184.117188 104.199219 183.195312 C 142.578125 182.015625 180.894531 178.964844 219.050781 174.71875 C 230.203125 173.46875 246.203125 171.449219 257.265625 170.3125 C 261.410156 170.050781 265.609375 169.234375 269.90625 170.160156 C 270.699219 170.449219 271.535156 170.808594 271.953125 171.90625 C 272.195312 172.601562 272.070312 173.269531 271.898438 173.683594" fill="#ffffff"/></g><g id="change2_41"><path d="M 174.320312 163.015625 C 147.957031 171.042969 120.382812 175.214844 92.839844 175.539062 C 62.253906 175.484375 31.667969 173.421875 1.304688 169.664062 L 1.460938 168.855469 C 31.894531 170.429688 62.335938 172.027344 92.792969 171.945312 C 118.128906 171.738281 143.273438 168.539062 167.957031 163.015625 L 174.320312 163.015625" fill="#ffffff"/></g><g id="change2_42"><path d="M 208.699219 163.015625 C 202.625 168.726562 194.714844 170.683594 186.191406 170.933594 C 177.09375 171.636719 168.058594 172.78125 158.867188 173.054688 C 167.605469 169.945312 176.679688 168.132812 185.90625 167.339844 C 190.355469 167.042969 194.824219 167.042969 199.128906 165.78125 C 201.597656 165.125 204.003906 164.1875 206.347656 163.015625 L 208.699219 163.015625" fill="#ffffff"/></g><g id="change2_43"><path d="M 155.382812 194.078125 C 129.011719 197.65625 107.316406 197.304688 93.757812 196.378906 C 71.765625 194.882812 52.910156 191.105469 44.21875 188.792969 C 44.875 188.863281 45.570312 188.9375 46.28125 189.015625 C 55.046875 190.015625 71.371094 191.882812 92.769531 192.195312 C 114.949219 192.53125 134.613281 191.097656 157.398438 189.429688 C 167.902344 188.675781 176.410156 187.917969 182.625 187.367188 C 187.308594 186.953125 191.210938 186.601562 193.761719 186.457031 C 187.5 188.386719 172.121094 191.820312 155.382812 194.078125 Z M 182.472656 185.566406 C 176.257812 186.125 167.761719 186.871094 157.265625 187.640625 C 134.535156 189.296875 114.894531 190.730469 92.792969 190.394531 C 71.488281 190.078125 55.21875 188.222656 46.476562 187.234375 C 42.632812 186.792969 40.46875 186.546875 39.253906 186.546875 C 37.917969 186.546875 37.695312 186.835938 37.605469 187.484375 C 37.558594 187.765625 37.640625 188.054688 37.828125 188.285156 C 39.335938 190.152344 64.921875 196.214844 93.640625 198.179688 C 98.839844 198.53125 105.246094 198.800781 112.640625 198.800781 C 124.625 198.800781 139.21875 198.089844 155.617188 195.871094 C 174.75 193.277344 196.5625 188.441406 198.039062 186.449219 C 198.21875 186.207031 198.292969 185.917969 198.257812 185.636719 C 198.03125 184.242188 197.445312 184.242188 182.472656 185.566406" fill="#ffffff"/></g><g id="change2_44"><path d="M 322.023438 163.015625 C 318.835938 165.863281 313.71875 168.441406 311.347656 169.621094 C 291.070312 179.476562 269.546875 186.378906 248.691406 194.738281 C 243.453125 196.890625 237.996094 198.503906 232.5 199.835938 C 208.699219 205.351562 184.308594 207.898438 159.984375 209.613281 C 137.515625 211.070312 114.957031 211.574219 92.46875 210.285156 C 84.972656 209.855469 77.488281 209.132812 70.082031 207.945312 C 85.003906 209.496094 99.992188 209.601562 114.964844 209.441406 C 152.328125 208.640625 189.894531 206.503906 226.636719 199.394531 C 233.925781 197.855469 241.183594 196.089844 248.085938 193.242188 C 268.878906 184.691406 290.320312 177.765625 310.683594 168.277344 C 314.851562 166.285156 317.890625 164.539062 319.933594 163.015625 L 322.023438 163.015625" fill="#ffffff"/></g><g id="change2_45"><path d="M 436.820312 218.289062 C 432.0625 220.835938 426.792969 221.890625 421.628906 223.152344 C 411.40625 225.421875 401.105469 227.046875 390.800781 228.53125 C 339.285156 235.9375 286.800781 239.171875 235.015625 232.550781 C 224.636719 231.046875 214.246094 229.621094 204.335938 225.855469 C 198.832031 223.792969 195.679688 219.484375 203.589844 217.378906 C 209.914062 215.710938 216.382812 214.746094 222.726562 213.304688 C 243.003906 208.945312 262.753906 202.234375 281.535156 193.421875 C 290.914062 189.027344 300.015625 183.910156 309.554688 179.691406 C 319.070312 175.449219 328.753906 171.648438 338.464844 167.871094 C 342.917969 166.050781 347.449219 164.429688 352.042969 163.015625 L 354.773438 163.015625 C 349.367188 164.648438 344.035156 166.566406 338.808594 168.765625 C 329.167969 172.621094 319.519531 176.519531 310.085938 180.855469 C 300.609375 185.152344 291.554688 190.261719 282.160156 194.746094 C 263.328125 203.710938 243.492188 210.585938 223.113281 215.078125 C 216.789062 216.566406 210.375 217.558594 204.128906 219.234375 C 203.050781 219.558594 201.816406 219.953125 201.023438 220.621094 C 200.742188 220.925781 200.777344 220.953125 200.878906 221.277344 C 201.777344 222.613281 203.554688 223.332031 205.101562 224 C 214.6875 227.585938 225.148438 228.980469 235.292969 230.386719 C 286.878906 236.839844 339.152344 233.550781 390.449219 226.0625 C 400.710938 224.558594 410.980469 222.917969 421.0625 220.664062 C 425.910156 219.484375 431.171875 218.367188 435.503906 216.0625 C 436.089844 215.738281 436.578125 215.351562 436.8125 214.972656 C 436.800781 214.964844 436.792969 214.945312 436.785156 214.925781 C 436.261719 214.261719 435 213.773438 434.097656 213.433594 C 431.792969 212.601562 429.269531 212.054688 426.765625 211.574219 C 421.710938 210.640625 416.566406 210.027344 411.421875 209.511719 C 375.242188 206.3125 338.753906 206.710938 302.546875 209.222656 C 287.03125 210.414062 271.511719 211.9375 256.121094 214.242188 C 251.015625 215.042969 245.871094 215.871094 240.960938 217.207031 C 239.734375 217.585938 238.453125 217.910156 237.4375 218.511719 C 238.6875 219.144531 240.257812 219.394531 241.699219 219.691406 C 248.039062 220.820312 254.492188 221.261719 260.941406 221.710938 C 292.042969 223.621094 323.269531 223.242188 354.339844 221.046875 C 364.675781 220.261719 375.0625 219.441406 385.277344 217.765625 C 387.125 217.378906 389.171875 217.160156 390.882812 216.394531 C 389.898438 216.035156 388.71875 215.882812 387.683594 215.710938 C 360.585938 212.964844 333.179688 213.421875 305.988281 214.703125 C 299.5 215.226562 292.816406 215.199219 286.472656 216.640625 C 299.710938 218.042969 314.710938 217.691406 328.546875 217.980469 C 314.582031 217.773438 300.519531 218.449219 286.609375 217.042969 C 286.527344 217.015625 286.4375 217 286.355469 216.964844 C 286.265625 216.910156 286.160156 216.925781 286.03125 216.703125 C 285.734375 215.828125 289.773438 215.601562 290.394531 215.441406 C 321.449219 212.351562 352.828125 211.792969 383.980469 213.871094 C 386.65625 214.199219 389.324219 214.261719 391.890625 215.261719 C 392.234375 215.421875 392.855469 215.890625 392.738281 216.496094 C 392.65625 217.253906 391.800781 217.574219 391.359375 217.773438 C 384.457031 219.953125 377.144531 220.378906 370.023438 221.289062 C 364.84375 221.828125 359.65625 222.289062 354.46875 222.691406 C 323.320312 225.082031 292.015625 225.640625 260.808594 223.898438 C 255.601562 223.585938 250.402344 223.179688 245.195312 222.503906 C 242.183594 222.035156 239.148438 221.757812 236.292969 220.476562 C 235.933594 220.269531 235.546875 220.109375 235.113281 219.511719 C 233.582031 216.675781 238.589844 215.621094 240.339844 215.027344 C 245.472656 213.628906 250.617188 212.800781 255.769531 211.972656 C 271.230469 209.628906 286.789062 208.070312 302.375 206.847656 C 338.738281 204.25 375.332031 203.792969 411.675781 206.9375 C 417.925781 207.703125 435.304688 208.945312 438.917969 213.46875 C 440.277344 215.460938 438.484375 217.421875 436.820312 218.289062" fill="#ffffff"/></g><g id="change2_46"><path d="M 511.425781 164.007812 C 511.371094 164.023438 511.316406 164.042969 511.261719 164.0625 C 497.542969 169.097656 483.253906 172.988281 468.890625 175.691406 C 444.855469 180.402344 419.945312 180.339844 395.792969 176.296875 C 390.980469 175.683594 386.160156 175.214844 381.332031 174.945312 C 352.214844 173.097656 322.914062 180.234375 297.304688 194.054688 C 322.347656 178.699219 352.070312 170.890625 381.457031 172.394531 C 391.222656 172.765625 400.953125 174.441406 410.601562 175.546875 C 429.875 177.773438 449.40625 176.710938 468.53125 173.648438 C 482.945312 171.332031 497.136719 167.726562 511.109375 163.359375 C 511.289062 163.519531 511.390625 163.738281 511.425781 164.007812" fill="#ffffff"/></g><g id="change2_47"><path d="M 468.902344 163.015625 C 454.8125 167.261719 439.722656 168.402344 425.234375 166.152344 C 435.316406 165.675781 445.269531 164.980469 455.207031 163.351562 C 455.902344 163.242188 456.59375 163.132812 457.289062 163.015625 L 468.902344 163.015625" fill="#ffffff"/></g><g clip-path="url(#c)" id="change2_5"><path d="M 512.246094 204.675781 C 508.929688 204.664062 505.613281 204.628906 502.308594 204.585938 C 481.921875 204.105469 461.53125 202.945312 441.242188 200.820312 C 420.980469 198.757812 400.855469 195.359375 380.574219 193.773438 C 350.167969 191.285156 319.484375 193.808594 289.683594 200.1875 C 319.25 192.222656 350.195312 189.097656 380.765625 191.234375 C 401.132812 192.648438 421.261719 196.054688 441.511719 198.277344 C 461.738281 200.566406 482.027344 202.261719 502.351562 203.261719 C 505.605469 203.449219 508.847656 203.601562 512.101562 203.746094 L 512.246094 204.675781" fill="#ffffff"/></g><g clip-path="url(#d)" id="change2_3"><path d="M 507.414062 175.699219 C 484.578125 178.3125 462.558594 186.125 439.53125 187.683594 C 416.550781 189.648438 393.304688 187.53125 370.871094 182.324219 C 400.898438 188.214844 432.019531 188.910156 461.980469 182.457031 C 476.964844 179.242188 491.820312 174.996094 507.128906 173.269531 C 508.765625 173.070312 510.40625 172.890625 512.054688 172.738281 L 512.550781 175.222656 C 510.828125 175.359375 509.128906 175.519531 507.414062 175.699219" fill="#ffffff"/></g><g clip-path="url(#e)" id="change2_6"><path d="M 473.136719 188.277344 C 471.675781 188.640625 470.0625 188.863281 468.8125 189.683594 C 470.007812 190.503906 471.875 190.847656 473.398438 191.214844 C 477.101562 191.980469 480.894531 192.449219 484.683594 192.847656 C 493.46875 193.675781 502.363281 193.972656 511.226562 193.683594 L 510.730469 194.863281 L 510.875 195.820312 C 502.074219 196.015625 493.242188 195.59375 484.496094 194.539062 C 482.027344 194.105469 465.746094 192.703125 467.398438 189.1875 C 467.640625 188.664062 468.136719 188.402344 468.558594 188.1875 C 469.945312 187.546875 471.414062 187.269531 472.875 186.980469 C 476.683594 186.285156 480.503906 185.890625 484.335938 185.519531 C 493.8125 184.664062 503.296875 184.125 512.804688 183.71875 L 512.804688 183.9375 C 503.335938 184.664062 493.867188 185.429688 484.441406 186.539062 C 480.640625 187 476.839844 187.503906 473.136719 188.277344" fill="#ffffff"/></g><g id="change2_48"><path d="M 426.925781 192.21875 C 426.976562 191.742188 434.398438 193.558594 445.171875 191.601562 C 453.265625 190.136719 460.398438 187.058594 460.96875 188.230469 C 461.386719 189.089844 457.589844 190.867188 457.902344 192.984375 C 458.363281 196.128906 467.453125 196.933594 467.40625 197.277344 C 467.308594 198.003906 426.804688 193.316406 426.925781 192.21875" fill="#ffffff"/></g><g id="change2_49"><path d="M 34.234375 195.207031 C 34.207031 195.441406 25.125 194.621094 2.9375 192.261719 L 3.296875 189.925781 L 1.523438 182.664062 C 5.109375 183.269531 9.566406 183.910156 14.683594 184.394531 C 23.117188 185.195312 29.269531 185.214844 29.289062 185.773438 C 29.289062 186.828125 6.226562 185.386719 6.136719 187.539062 C 6.035156 189.953125 34.289062 194.808594 34.234375 195.207031" fill="#ffffff"/></g><g id="change2_50"><path d="M 234.167969 204.484375 C 224.472656 207.042969 214.652344 209.078125 204.761719 210.746094 C 137.363281 221.171875 68.101562 218.800781 1.234375 205.621094 L 1.234375 203.378906 L 1.433594 202.105469 C 67.964844 216.683594 137.210938 219.738281 204.699219 210.332031 C 214.589844 208.808594 224.4375 206.910156 234.167969 204.484375" fill="#ffffff"/></g><g id="change2_51"><path d="M 321.878906 245.277344 C 307.996094 246.640625 294.015625 247.179688 280.042969 246.890625 C 266.066406 246.550781 252.105469 245.304688 238.285156 243.125 C 224.519531 240.910156 210.894531 238.0625 196.984375 237.214844 C 186.644531 236.59375 176.191406 236.394531 165.886719 237.574219 C 155.5625 239.136719 144.976562 240.070312 134.550781 240.449219 C 106.613281 241.9375 78.453125 240.332031 51.035156 234.59375 C 40.800781 232.601562 30.515625 230.703125 20.082031 231.628906 C 14.242188 232.1875 8.496094 233.460938 2.929688 235.316406 L 2.765625 234.839844 C 11.621094 231.558594 21.0625 229.847656 30.515625 230.226562 C 37.550781 230.496094 44.476562 231.738281 51.34375 232.917969 C 78.722656 238.019531 106.640625 239.496094 134.425781 237.875 C 144.929688 237.433594 155.175781 236.40625 165.578125 234.945312 C 176.074219 233.8125 186.652344 234.070312 197.164062 234.765625 C 211.132812 235.710938 224.90625 238.550781 238.617188 241.082031 C 252.3125 243.488281 266.175781 244.953125 280.085938 245.566406 C 293.996094 246.304688 307.953125 246.027344 321.878906 245.277344" fill="#ffffff"/></g><g id="change2_52"><path d="M 203.652344 230.710938 C 195.320312 228.324219 186.859375 226.421875 178.320312 225.027344 C 161.210938 221.945312 143.867188 222.351562 126.550781 222.34375 L 100.558594 222.234375 C 74.496094 222.664062 48.695312 218.40625 22.8125 216.117188 C 15.621094 215.449219 8.425781 214.898438 1.234375 214.351562 L 1.234375 210.800781 C 17.171875 212.277344 33.089844 213.980469 48.957031 216.078125 C 66.136719 218.585938 83.234375 220.253906 100.597656 220.433594 C 115.867188 220.847656 137.480469 221.054688 152.5625 221.59375 C 169.894531 222.386719 187.066406 225.691406 203.652344 230.710938" fill="#ffffff"/></g><g id="change2_53"><path d="M 162.292969 231.046875 C 158.273438 232.449219 154.003906 232.539062 149.886719 233.089844 C 136.949219 234.261719 124.101562 235.433594 111.117188 236.109375 C 91.597656 237.125 72.054688 234.277344 53.144531 229.601562 C 43.695312 227.367188 34.621094 223.800781 24.964844 222.71875 C 16.964844 221.890625 8.875 222.992188 1.234375 225.484375 L 1.234375 225.261719 C 8.8125 222.449219 16.980469 221.125 25.054688 221.710938 C 34.800781 222.441406 44.101562 225.898438 53.542969 227.945312 C 66.089844 230.820312 78.894531 232.765625 91.730469 233.566406 C 104.605469 234.386719 117.460938 233.199219 130.308594 232.136719 C 136.75 231.574219 143.199219 231.0625 149.617188 230.40625 C 151.742188 230.144531 153.894531 229.972656 156.011719 229.683594 C 149.632812 229.054688 142.515625 228.835938 136.136719 228.414062 C 117.613281 227.574219 86.53125 225.460938 68.34375 225.316406 C 67.984375 225.324219 67.621094 225.332031 67.273438 225.351562 C 81.039062 229.421875 95.597656 231.109375 109.957031 230.710938 C 97.003906 231.765625 83.984375 230.46875 71.261719 227.882812 C 69.191406 227.351562 66.949219 227.070312 65.054688 225.890625 L 64.957031 225.820312 C 64.921875 225.773438 64.875 225.730469 64.839844 225.675781 C 64.722656 225.574219 64.425781 225.035156 64.75 224.558594 C 64.902344 224.34375 65.011719 224.296875 65.128906 224.214844 C 66.15625 223.792969 67.296875 223.871094 68.308594 223.792969 C 78.046875 223.621094 87.75 224.042969 97.46875 224.304688 C 116.902344 225 136.28125 225.648438 155.6875 227 C 157.941406 227.269531 160.292969 227.199219 162.5 228.054688 C 162.5625 228.082031 162.75 228.207031 162.859375 228.296875 C 162.902344 228.324219 163.039062 228.46875 163.121094 228.574219 C 163.785156 229.484375 163.257812 230.648438 162.292969 231.046875" fill="#ffffff"/></g><g clip-path="url(#f)" id="change2_59"><path d="M 512.804688 209.890625 L 512.804688 210.117188 C 510.757812 210.242188 508.714844 210.34375 506.660156 210.367188 C 499.765625 210.46875 492.894531 210.441406 486.011719 210.484375 C 474.585938 210.585938 463.097656 210.316406 451.773438 208.773438 C 454.515625 209.691406 457.179688 210.800781 459.722656 212.214844 C 467.316406 216.566406 458.839844 221.613281 454.1875 223.601562 C 441.394531 229.070312 427.757812 231.875 414.097656 234.070312 C 400.539062 236.386719 386.636719 236.566406 373.132812 238.917969 C 366.402344 240.117188 359.738281 241.765625 353.195312 243.703125 C 346.539062 245.578125 340.375 248.675781 333.671875 250.496094 C 313.519531 255.8125 292.402344 256.503906 271.71875 254.8125 C 264.824219 254.234375 257.90625 253.269531 251.140625 251.695312 C 244.417969 250.136719 237.84375 248.332031 231.066406 247.109375 C 210.851562 243.578125 190.230469 241.484375 169.695312 242.214844 C 162.832031 242.414062 155.96875 242.710938 149.148438 243.304688 C 145.496094 243.703125 141.777344 243.917969 138.371094 244.972656 C 138.488281 245.027344 138.605469 245.070312 138.722656 245.117188 C 146.796875 247.621094 155.417969 248.34375 163.839844 249.449219 C 184.292969 251.792969 204.933594 253.046875 225.519531 252.710938 C 228.699219 252.539062 232.175781 252.648438 235.265625 251.890625 C 233.039062 250.890625 230.480469 250.550781 228.105469 249.992188 C 221.390625 248.675781 214.5625 247.773438 207.742188 247.054688 C 197.5 245.953125 187.183594 245.496094 176.886719 245.648438 C 173.230469 245.8125 169.480469 245.683594 165.886719 246.367188 C 168.257812 246.945312 170.796875 247.019531 173.210938 247.304688 C 176.632812 247.613281 180.066406 247.863281 183.5 248.097656 C 190.363281 248.59375 197.238281 249.019531 204.113281 249.414062 C 193.789062 249.007812 183.472656 248.621094 173.164062 247.863281 C 170.570312 247.640625 167.984375 247.515625 165.417969 247 C 165.191406 246.929688 165.003906 246.929688 164.679688 246.703125 C 164.589844 246.695312 164.410156 246.296875 164.589844 246.097656 C 164.75 245.875 165.003906 245.828125 165.210938 245.757812 C 169.050781 244.964844 172.984375 244.964844 176.859375 244.773438 C 194.113281 244.269531 211.402344 245.421875 228.402344 248.488281 C 231.3125 249.171875 234.5 249.433594 237.105469 251.0625 C 237.871094 251.683594 237.644531 252.730469 236.789062 253.117188 C 233.113281 254.394531 229.347656 254.160156 225.570312 254.425781 C 204.867188 254.953125 184.164062 253.890625 163.578125 251.710938 C 156.722656 250.929688 149.878906 250.097656 143.046875 248.710938 C 140.878906 248.199219 138.589844 247.800781 136.523438 246.683594 C 136.28125 246.53125 136.019531 246.367188 135.722656 246.027344 C 135.578125 245.847656 135.40625 245.59375 135.328125 245.214844 C 135.246094 244.828125 135.355469 244.378906 135.515625 244.109375 C 135.851562 243.558594 136.15625 243.414062 136.417969 243.234375 C 136.6875 243.070312 136.921875 242.972656 137.164062 242.875 C 141.019531 241.566406 145.046875 241.34375 148.929688 240.910156 C 159.292969 240.019531 169.605469 239.628906 179.984375 239.558594 C 204.101562 239.882812 228.390625 242.929688 251.742188 249.070312 C 277.070312 254.59375 307.890625 254.621094 333.023438 248.144531 C 339.628906 246.367188 345.882812 243.261719 352.511719 241.421875 C 359.167969 239.476562 365.898438 237.839844 372.726562 236.640625 C 379.566406 235.414062 386.492188 234.839844 393.339844 234.316406 C 407.027344 233.253906 420.648438 231.441406 434.007812 228.289062 C 440.792969 226.523438 458.335938 222.449219 461.214844 216.574219 C 462.648438 212.386719 443.503906 207.613281 439.875 206.664062 C 439.847656 206.65625 439.828125 206.65625 439.8125 206.65625 C 439.773438 206.738281 439.738281 206.820312 439.765625 206.640625 C 439.773438 206.585938 439.792969 206.523438 439.8125 206.433594 C 440.035156 205.214844 440.046875 205.414062 440.054688 205.566406 C 440.070312 205.566406 440.089844 205.574219 440.109375 205.574219 L 440.269531 205.601562 L 440.585938 205.675781 L 441.207031 205.808594 C 455.890625 209.1875 470.984375 209.863281 486.011719 209.898438 L 506.660156 210.054688 C 508.703125 210.054688 510.75 209.988281 512.804688 209.890625" fill="#ffffff"/></g><g clip-path="url(#g)" id="change2_1"><path d="M 512.804688 221.144531 L 512.804688 221.566406 C 504.640625 221.585938 496.496094 222.296875 488.53125 224.0625 C 478.792969 226.386719 469.40625 230 459.621094 232.304688 C 440.097656 237.207031 419.964844 239.441406 400.035156 241.484375 C 393.429688 242.226562 386.847656 243.304688 380.296875 244.574219 C 373.726562 245.800781 367.242188 247.367188 360.753906 249.035156 C 373.394531 244.640625 386.449219 241.316406 399.773438 239.394531 C 411.53125 237.792969 427.945312 235.800781 439.441406 233.765625 C 452.605469 231.59375 465.503906 228.441406 478.351562 224.691406 C 481.585938 223.808594 484.847656 222.9375 488.179688 222.332031 C 496.289062 220.898438 504.597656 220.574219 512.804688 221.144531" fill="#ffffff"/></g><g clip-path="url(#h)" id="change2_7"><path d="M 512.730469 257.683594 L 512.722656 257.773438 C 485.902344 253.152344 458.558594 254.097656 431.566406 256.757812 C 423.1875 257.890625 414.675781 258.226562 406.234375 257.558594 C 397.808594 257.027344 389.492188 254.910156 381.222656 253.8125 C 372.953125 252.683594 364.558594 252.578125 356.304688 253.800781 C 342.476562 256.054688 329.050781 260.683594 315.042969 262.035156 C 292.664062 264.667969 269.90625 262.703125 248.039062 257.539062 C 250.808594 258.046875 253.546875 258.640625 256.320312 259.054688 C 258.410156 259.425781 262.546875 260.035156 264.636719 260.316406 C 281.277344 262.476562 298.230469 262.855469 314.871094 260.65625 C 328.84375 259.070312 342.195312 254.488281 356.050781 252.136719 C 364.449219 250.855469 373.054688 250.910156 381.457031 252.027344 C 387.078125 252.765625 392.566406 254.046875 398.070312 254.902344 C 409.105469 256.640625 420.332031 256.675781 431.40625 255.214844 C 458.46875 252.792969 486.011719 252.242188 512.730469 257.683594" fill="#ffffff"/></g><g clip-path="url(#i)" id="change2_2"><path d="M 512.804688 248.089844 L 512.804688 248.34375 C 504.777344 246.214844 496.578125 244.765625 488.308594 244.277344 C 477.8125 243.539062 467.296875 244.523438 457.007812 246.648438 C 451.855469 247.695312 446.703125 248.863281 441.46875 249.683594 C 430.992188 251.414062 420.277344 251.496094 409.730469 250.523438 C 404.386719 249.972656 399.179688 249.476562 393.9375 248.054688 C 393.394531 247.863281 392.65625 247.648438 392.261719 247.117188 C 391.800781 246.433594 392.234375 245.632812 392.953125 245.433594 C 395.117188 244.964844 397.125 245.152344 399.261719 245.054688 C 407.132812 244.972656 415.015625 244.640625 422.828125 243.65625 C 437.890625 241.785156 454.234375 237.214844 469.054688 233.550781 C 482.648438 229.613281 496.972656 227.277344 511.089844 228.792969 C 511.074219 228.847656 511.035156 228.910156 511.011719 228.964844 C 496.847656 227.917969 482.929688 230.523438 469.34375 234.640625 C 454.46875 238.621094 438.289062 243.34375 423.035156 245.277344 C 417.78125 245.953125 412.496094 246.378906 407.214844 246.59375 C 405.792969 246.683594 404.359375 246.722656 396.621094 246.875 C 400.757812 247.820312 405.675781 248.367188 409.890625 248.8125 C 420.324219 249.820312 430.855469 249.800781 441.226562 248.144531 C 446.40625 247.34375 451.550781 246.242188 456.746094 245.289062 C 467.136719 243.304688 477.8125 242.46875 488.371094 243.40625 C 496.648438 244.117188 504.847656 245.730469 512.804688 248.089844" fill="#ffffff"/></g><g clip-path="url(#j)" id="change2_4"><path d="M 512.804688 215.226562 L 512.804688 215.855469 C 496.8125 214.664062 480.765625 216.460938 465.414062 221.199219 C 479.992188 214.296875 496.945312 212.195312 512.804688 215.226562" fill="#ffffff"/></g><g id="change2_54"><path d="M 47.558594 247.9375 C 35.441406 248.972656 23.335938 249.054688 11.199219 249.109375 C 24.730469 248.277344 38.453125 248.199219 51.820312 245.890625 C 52.371094 245.757812 52.964844 245.605469 53.40625 245.40625 C 51.984375 244.648438 50.234375 244.359375 48.605469 243.972656 C 44.191406 243.054688 39.703125 242.449219 35.21875 241.910156 C 26.304688 240.621094 17.34375 241.585938 8.875 244.65625 C 6.234375 245.59375 3.621094 246.667969 1.234375 248.007812 L 1.234375 245.839844 C 1.234375 245.613281 1.242188 245.394531 1.269531 245.179688 L 1.269531 245.171875 C 3.488281 244.082031 5.863281 243.269531 8.109375 242.421875 C 13.945312 240.449219 20.097656 239.1875 26.28125 239.269531 C 32.441406 239.351562 38.433594 240.433594 44.46875 241.476562 C 47.902344 242.261719 51.503906 242.550781 54.613281 244.378906 C 57.433594 247.277344 49.074219 247.703125 47.558594 247.9375" fill="#ffffff"/></g><g id="change2_55"><path d="M 88.144531 246.289062 C 86.730469 249.242188 74.433594 250.722656 70.972656 251.425781 C 49.917969 254.53125 28.632812 256.398438 7.34375 255.765625 C 6.042969 255.65625 3.613281 255.558594 1.234375 255.171875 L 1.234375 252.53125 C 1.855469 252.621094 2.476562 252.703125 3.035156 252.792969 C 13.503906 253.839844 24.074219 253.125 34.558594 252.550781 C 40.585938 252.179688 46.621094 251.730469 52.621094 251.144531 C 58.632812 250.539062 64.621094 249.792969 70.585938 248.910156 C 73.558594 248.449219 76.53125 247.953125 79.453125 247.34375 C 81.289062 246.902344 83.261719 246.558594 84.972656 245.792969 C 82.703125 245.289062 79.414062 245.054688 77.390625 244.738281 C 68.351562 243.558594 59.359375 241.847656 50.515625 239.65625 C 34.992188 235.019531 18.027344 235.046875 2.917969 240.972656 C 2.972656 240.863281 3.019531 240.746094 3.054688 240.640625 C 18 234.117188 35.242188 233.621094 50.902344 238 C 61.191406 240.359375 71.6875 241.929688 82.179688 243.007812 C 84.054688 243.378906 89.109375 243.214844 88.144531 246.289062" fill="#ffffff"/></g><g id="change2_56"><path d="M 264.113281 270.65625 L 259.90625 270.65625 C 254.789062 268.34375 249.519531 266.476562 244.140625 265.082031 C 239.652344 263.917969 235.664062 263.242188 225.175781 262.351562 C 224.886719 262.335938 224.589844 262.308594 224.285156 262.28125 C 221.941406 262.082031 219.285156 261.882812 216.238281 261.65625 C 202.796875 260.683594 195.734375 260.371094 190.578125 260.136719 C 184.777344 259.875 181.859375 259.738281 175.617188 258.890625 C 171.121094 258.289062 169.257812 257.902344 166.183594 257.253906 C 162.785156 256.539062 157.652344 255.460938 145.382812 253.371094 C 128.550781 250.503906 123.226562 249.992188 116.992188 249.855469 C 111.363281 249.738281 105.597656 249.953125 94.273438 251.386719 C 78.894531 253.324219 67.847656 255.683594 59.792969 257.40625 C 57.101562 257.972656 54.777344 258.46875 52.621094 258.890625 C 36.722656 261.945312 19.695312 262.503906 1.945312 260.523438 L 1.539062 258.65625 C 19.332031 260.703125 36.378906 260.179688 52.28125 257.117188 C 54.414062 256.703125 56.730469 256.214844 59.414062 255.640625 C 67.507812 253.910156 78.597656 251.550781 94.046875 249.59375 C 105.480469 248.152344 111.316406 247.9375 117.027344 248.054688 C 123.363281 248.1875 128.742188 248.710938 145.679688 251.59375 C 157.992188 253.695312 163.148438 254.773438 166.554688 255.488281 C 169.589844 256.125 171.425781 256.515625 175.859375 257.109375 C 182.023438 257.945312 184.914062 258.070312 190.660156 258.335938 C 195.824219 258.566406 202.90625 258.882812 216.363281 259.863281 C 219.492188 260.097656 222.222656 260.308594 224.617188 260.503906 C 224.769531 260.515625 224.921875 260.53125 225.078125 260.539062 C 235.886719 261.449219 239.96875 262.144531 244.589844 263.34375 C 251.292969 265.082031 257.835938 267.53125 264.113281 270.65625" fill="#ffffff"/></g><g id="change2_57"><path d="M 223.570312 270.65625 L 222.832031 270.65625 C 214.429688 266.820312 205.390625 264.414062 196.15625 264.136719 C 181.472656 264.070312 166.398438 265.324219 152.109375 261.027344 C 140.589844 256.929688 128.28125 256.054688 116.121094 256.253906 C 101.523438 256.683594 86.832031 258.378906 72.46875 261.144531 C 67.675781 262.125 62.867188 263.171875 58.019531 263.980469 C 39.894531 267.082031 21.398438 267.839844 3.082031 266.476562 L 3.082031 266.34375 C 21.378906 267.035156 39.777344 266 57.777344 262.621094 C 62.578125 261.730469 67.34375 260.613281 72.15625 259.621094 C 86.632812 256.757812 101.300781 254.972656 116.082031 254.449219 C 128.390625 254.304688 140.921875 255.289062 152.578125 259.496094 C 159.5625 261.65625 166.867188 262.324219 174.148438 262.8125 C 183.914062 263.488281 193.84375 262.269531 203.5625 263.902344 C 210.535156 265.191406 217.273438 267.488281 223.570312 270.65625" fill="#ffffff"/></g><g id="change2_58"><path d="M 190.175781 270.65625 L 189.308594 270.65625 C 185.382812 269.207031 181.28125 268.269531 177.128906 267.972656 C 169.363281 267.296875 161.328125 268.820312 153.472656 267.613281 C 148.804688 266.828125 144.300781 265.316406 139.613281 264.785156 C 136.535156 264.371094 133.398438 264.117188 130.273438 263.910156 C 105.28125 262.378906 80.144531 265.109375 55.75 270.65625 L 53.972656 270.65625 C 78.730469 263.667969 104.703125 260.503906 130.390625 262.199219 C 133.542969 262.433594 136.695312 262.710938 139.851562 263.152344 C 146.109375 263.953125 152.03125 266.359375 158.328125 266.667969 C 164.535156 267.074219 170.878906 266.378906 177.21875 267.097656 C 181.695312 267.621094 186.074219 268.839844 190.175781 270.65625" fill="#ffffff"/></g></g></svg>