<?xml version="1.0" encoding="UTF-8" standalone="no"?><svg xmlns="http://www.w3.org/2000/svg" xmlns:xlink="http://www.w3.org/1999/xlink" fill="#ffffff" height="495.9" preserveAspectRatio="xMidYMid meet" version="1" viewBox="54.5 8.0 402.9 495.9" width="402.9" zoomAndPan="magnify"><g id="change1_1"><path d="M394.641,348.505c3.896-5.134,6.209-11.531,6.209-18.458c0-16.87-13.725-30.596-30.596-30.596h-56.293 c-0.001,0-0.001,0-0.002,0c-5.633,0-11.04,1.527-15.755,4.382c4.162-7.182,6.397-14.097,7.117-19.316 c0.05-0.362,0.075-0.728,0.075-1.093v-36.782c0-35.766-29.102-64.864-64.872-64.864c-4.418,0-8,3.582-8,8v47.417 c0,29.24-22.661,45.215-46.653,62.128c-3.677,2.592-7.451,5.26-11.122,7.964h-66.694c-4.418,0-8,3.582-8,8v156.191 c0,4.418,3.582,8,8,8h66.188c20.307,18.452,40.789,24.438,64.634,24.438c18.269,0,38.512-3.511,62.16-7.611l5.621-0.973 c2.342,0.576,4.787,0.888,7.304,0.888h36.478c16.871,0,30.596-13.726,30.596-30.596c0-6.295-1.911-12.152-5.183-17.021 c10.958-4.661,18.661-15.534,18.661-28.173c0-5.981-1.725-11.566-4.704-16.286c11.957-4.163,20.561-15.548,20.562-28.906 C410.37,363.762,404.016,353.739,394.641,348.505z M303.66,319.745c2.769-2.77,6.426-4.294,10.3-4.294h0.001h56.293 c8.048,0,14.596,6.548,14.596,14.596c0,8.049-6.548,14.597-14.597,14.597h-56.292c-8.049,0-14.597-6.548-14.597-14.597 C299.366,326.173,300.891,322.514,303.66,319.745z M116.055,323.288h53.34c0.084,88.085,0.08,125.831,0.047,140.191h-53.388V323.288 z M185.427,468.015c0.007-1.574,0.013-3.667,0.019-6.299c0.013-6.515,0.019-16.284,0.019-29.307 c0-25.356-0.025-63.056-0.073-113.093c3.132-2.287,6.346-4.553,9.698-6.916c25.046-17.656,53.434-37.669,53.434-75.206v-38.762 c23.156,3.828,40.872,23.989,40.872,48.209v36.187c-0.956,5.873-4.989,15.443-13.431,23.892c-2.721,2.723-3.117,6.998-0.941,10.175 c7.053,10.299,9.431,19.91,7.268,29.382c-4.113,18.014-24.085,31.175-32.482,35.997c-3.831,2.201-5.153,7.091-2.953,10.922 c1.479,2.575,4.173,4.018,6.944,4.017c1.352,0,2.721-0.343,3.977-1.063c4.892-2.81,11.178-6.874,17.362-12.136 c2.307,7.687,7.55,14.117,14.433,17.96c-3.895,5.134-6.209,11.53-6.209,18.457c0,8.944,3.859,17.006,9.998,22.605 c-0.345,0.315-0.684,0.64-1.017,0.973c-5.792,5.792-8.981,13.469-8.98,21.616c0,6.134,1.821,11.847,4.941,16.641 C241.389,490.279,213.442,493.174,185.427,468.015z M350.439,480.222h-36.478c-1.49,0-2.927-0.227-4.281-0.643 c-0.041-0.014-0.083-0.026-0.125-0.04c-5.901-1.873-10.19-7.4-10.19-13.912c0-3.874,1.525-7.533,4.294-10.302 c2.77-2.77,6.428-4.295,10.303-4.295c0.009,0,0.018,0,0.026,0h36.444c0.002,0,0.004,0,0.007,0c8.048,0,14.596,6.548,14.596,14.597 C365.035,473.674,358.487,480.222,350.439,480.222z M363.917,435.029h-49.956c-8.048-0.001-14.595-6.549-14.596-14.598 c0-8.048,6.548-14.596,14.597-14.596h49.955c8.048,0,14.596,6.548,14.596,14.596C378.513,428.48,371.965,435.028,363.917,435.029z M379.773,389.836h-75.33c-8.049,0-14.597-6.548-14.597-14.596c0-8.049,6.548-14.597,14.597-14.597h75.33 c8.048,0,14.597,6.548,14.597,14.596C394.37,383.288,387.822,389.836,379.773,389.836z M191.297,69.42l27.775,22.324l-9.347,34.383 c-1.199,4.402,0.412,8.979,4.103,11.662c3.689,2.681,8.541,2.8,12.357,0.301L256,118.574l29.817,19.519 c1.832,1.198,3.901,1.794,5.965,1.794c2.238,0,4.471-0.701,6.386-2.094c3.693-2.68,5.305-7.258,4.108-11.662l-9.348-34.386 l27.773-22.323c3.556-2.857,4.943-7.507,3.533-11.847c-1.41-4.337-5.264-7.283-9.82-7.506l-35.592-1.735L266.174,15.02 c0,0,0-0.001,0-0.001C264.554,10.755,260.561,8,256,8c-4.561,0-8.555,2.755-10.174,7.02l-12.648,33.314l-35.594,1.735 c-4.555,0.222-8.409,3.168-9.819,7.506C186.355,61.914,187.742,66.564,191.297,69.42z M237.303,64.151 c4.322-0.211,8.107-2.961,9.644-7.007L256,33.3l9.054,23.848c1.537,4.044,5.322,6.793,9.644,7.004l25.476,1.242l-19.881,15.979 c-3.374,2.712-4.819,7.163-3.683,11.337l6.691,24.613l-21.341-13.969c-1.81-1.185-3.884-1.778-5.959-1.778 c-2.075,0-4.15,0.592-5.962,1.777L228.7,117.322l6.691-24.614c1.134-4.175-0.312-8.625-3.685-11.335l-19.88-15.979L237.303,64.151z M153.994,214.091c1.831,1.198,3.9,1.794,5.964,1.793c2.239,0,4.472-0.701,6.389-2.095c3.691-2.681,5.303-7.258,4.106-11.66 l-9.348-34.386l27.775-22.324c3.555-2.858,4.94-7.507,3.532-11.843c-1.408-4.338-5.263-7.286-9.82-7.509l-35.592-1.735 L134.352,91.02c-1.618-4.265-5.612-7.021-10.174-7.021c-4.563,0-8.557,2.756-10.174,7.02l-12.648,33.314l-35.593,1.735 c-4.557,0.222-8.412,3.169-9.819,7.506c-1.41,4.338-0.023,8.987,3.532,11.846l27.775,22.323l-9.349,34.386 c-1.197,4.402,0.414,8.979,4.104,11.659c3.689,2.681,8.539,2.799,12.357,0.301l29.814-19.517L153.994,214.091z M118.216,179.352 l-21.34,13.969l6.692-24.613c1.134-4.174-0.312-8.624-3.685-11.336l-19.88-15.979l25.473-1.242c4.324-0.209,8.11-2.959,9.647-7.007 l9.053-23.845l9.053,23.845c1.537,4.047,5.323,6.797,9.644,7.006l25.477,1.242l-19.881,15.979 c-3.374,2.712-4.819,7.163-3.683,11.337l6.691,24.613l-21.339-13.968c-1.811-1.186-3.887-1.779-5.962-1.779 S120.026,178.166,118.216,179.352z M456.058,133.573c-1.41-4.337-5.264-7.283-9.82-7.506l-35.592-1.735l-12.648-33.313 c0,0,0-0.001,0-0.001c-1.619-4.264-5.612-7.019-10.173-7.019c-4.563,0-8.557,2.756-10.174,7.019L365,124.333l-35.592,1.735 c-4.555,0.222-8.41,3.168-9.821,7.509c-1.407,4.337-0.021,8.985,3.534,11.843l27.774,22.323l-9.348,34.386 c-1.198,4.404,0.415,8.981,4.103,11.658c3.689,2.683,8.54,2.8,12.358,0.302l29.814-19.517l29.817,19.518 c1.831,1.198,3.9,1.794,5.964,1.793c2.239,0,4.472-0.701,6.389-2.095c3.691-2.681,5.303-7.258,4.106-11.66l-9.348-34.386 l27.774-22.323C456.08,142.563,457.467,137.915,456.058,133.573z M412.116,157.371c-3.374,2.712-4.819,7.163-3.683,11.337 l6.691,24.613l-21.338-13.967c-1.812-1.187-3.887-1.78-5.963-1.78c-2.075,0-4.15,0.593-5.96,1.778l-21.34,13.969l6.69-24.611 c1.137-4.176-0.309-8.627-3.683-11.339l-19.88-15.979l25.473-1.242c4.325-0.209,8.112-2.961,9.646-7.007l9.054-23.846l9.053,23.846 c1.537,4.047,5.324,6.797,9.645,7.006l25.476,1.242L412.116,157.371z"/></g></svg>