<?xml version="1.0" encoding="UTF-8" standalone="no"?><svg xmlns="http://www.w3.org/2000/svg" xmlns:xlink="http://www.w3.org/1999/xlink" fill="#c31920" height="496.5" preserveAspectRatio="xMidYMid meet" version="1" viewBox="6.5 7.5 497.5 496.5" width="497.5" zoomAndPan="magnify"><g id="change1_1"><path d="M496,123.65h-60.89V62.76c0-4.42-3.58-8-8-8h-98.17c-4.42,0-8,3.58-8,8v60.89h-60.89c-4.42,0-8,3.58-8,8v98.17 c0,4.42,3.58,8,8,8h60.89v60.89c0,4.42,3.58,8,8,8h38.01c-2.92,39.45-12.57,77.75-28.73,113.95l-14.15,31.68 C314.4,474,292.82,488,269.1,488c-7.27,0-13.18-5.91-13.18-13.18v-35.74c0-36.25-5.91-72.04-17.57-106.36 c-2.98-8.78-10.9-14.45-20.17-14.45c-9.27,0-17.19,5.67-20.17,14.45c-11.66,34.33-17.57,70.11-17.57,106.36v35.74 c0,7.27-5.91,13.18-13.18,13.18c-23.72,0-45.3-14-54.97-35.66l-14.15-31.68c-19.69-44.09-29.67-90.93-29.67-139.22 c0-29.66-8.82-57.9-25.51-81.66c-13.48-19.18-20.47-41.77-20.22-65.32c0.31-29.16,11.91-56.69,32.67-77.52 c20.76-20.83,48.25-32.53,77.41-32.93c27.33-0.37,53.31,9.01,73.91,26.57c-10.38,11.59-18.58,25.01-24.19,39.76 c-1.57,4.13,0.51,8.75,4.64,10.32c0.94,0.36,1.9,0.52,2.84,0.52c3.23,0,6.27-1.97,7.48-5.16c8.01-21.09,22.07-39.08,40.67-52.04 C256.95,30.9,278.98,24,301.95,24c0.29,0,0.59,0,0.89,0c20.1,0.16,39.86,5.91,57.15,16.63c3.76,2.33,8.69,1.17,11.02-2.58 s1.17-8.69-2.58-11.02C348.63,14.76,325.99,8.18,302.96,8c-26.57-0.18-52.17,7.7-73.92,22.85c-3.79,2.64-7.4,5.47-10.85,8.46 c-23.72-20.68-53.8-31.77-85.57-31.31C99.25,8.48,67.81,21.84,44.09,45.65c-23.72,23.8-36.98,55.29-37.34,88.65 c-0.29,26.92,7.71,52.75,23.12,74.69c14.79,21.05,22.6,46.11,22.6,72.46c0,50.55,10.45,99.58,31.06,145.74l14.15,31.68 c12.24,27.42,39.55,45.13,69.58,45.13c16.09,0,29.18-13.09,29.18-29.18v-35.74c0-34.5,5.62-68.55,16.72-101.22 c1.1-3.24,3.88-3.59,5.02-3.59c1.14,0,3.92,0.35,5.02,3.59c11.09,32.67,16.72,66.72,16.72,101.22v35.74 c0,16.09,13.09,29.18,29.18,29.18c30.03,0,57.34-17.72,69.58-45.13l14.15-31.68c17.09-38.26,27.21-78.76,30.15-120.47h44.13 c4.42,0,8-3.58,8-8v-68.89c0-4.42-3.58-8-8-8s-8,3.58-8,8v60.89h-82.17v-60.89c0-4.42-3.58-8-8-8h-60.89v-82.17h60.89 c4.42,0,8-3.58,8-8V70.76h82.17v60.89c0,4.42,3.58,8,8,8H488v82.17h-31.15c-4.42,0-8,3.58-8,8s3.58,8,8,8H496c4.42,0,8-3.58,8-8 v-98.17C504,127.23,500.42,123.65,496,123.65z"/><path d="M75.52,96.02C89,75.09,111.89,62.59,136.75,62.59c4.42,0,8-3.58,8-8s-3.58-8-8-8c-30.33,0-58.24,15.24-74.68,40.77 c-2.39,3.71-1.32,8.67,2.4,11.06c1.34,0.86,2.84,1.27,4.32,1.27C71.42,99.69,74,98.4,75.52,96.02z"/><path d="M58.09,115.3c-4.37-0.66-8.44,2.35-9.1,6.72c-0.66,4.38-1,8.87-1,13.33c0,4.42,3.58,8,8,8s8-3.58,8-8 c0-3.67,0.27-7.35,0.82-10.94C65.47,120.03,62.46,115.96,58.09,115.3z"/></g></svg>