<?xml version="1.0" encoding="UTF-8" standalone="no"?><svg xmlns="http://www.w3.org/2000/svg" xmlns:xlink="http://www.w3.org/1999/xlink" fill="#ffffff" height="680.3" preserveAspectRatio="xMidYMid meet" version="1" viewBox="0.0 0.0 680.3 680.3" width="680.3" zoomAndPan="magnify"><g id="change1_1"><path d="M404.15,148.93c43.64-3.96,86.37-14.7,127.64-29.23c9.73-3.61,20.73-6.38,27.43-14.96c8.08-9.57,8.93-23.81,3.24-34.79 c-8.88-17.7-17.43-35.56-26.63-53.1C531.26,7.6,521.8,2.37,512.12,0h-6.01c-13.39,1.65-26.81,3.3-39.86,6.8 c-37.76,10.05-72.18,33.64-93.81,66.36c9.04,2.6,16.45,8.45,21.05,16.66c26.76-14.3,56.15-26.28,86.98-25.72 c9.14,0.74,11.53,14.62,3.99,19.13c-5.55,2.18-11.61,2.15-17.43,3.06c-26.47,3.03-51.18,14.43-73.53,28.49 c-0.19,11.32-0.24,22.67-0.27,33.99c-7.04,0.08-14.08,0.11-21.1,0.03c-0.58-14.91,0.72-29.9-0.56-44.78 c-0.35-6.38-7.23-8.66-12.65-8.29c-14.08-0.03-28.25-0.74-42.31,0.43c-5.16,0.27-8.29,5.37-8.16,10.18 c-0.74,14.14,0.19,28.33-0.27,42.49c-7.04,0.05-14.08,0.05-21.13-0.03c0.03-11.35-0.03-22.67-0.24-34.02 c-25.99-17.03-55.83-28.01-86.9-30.3c-11.21-0.56-11.19-19.4-0.19-20.33c30.85-0.66,60.35,11.45,87.17,25.67 c4.76-8.08,12.2-13.93,21.15-16.72c-17.75-26.97-44.41-47.62-74.2-59.77C214.91,5.53,194.53,2.18,174.25,0h-6.01 c-8.34,2.26-16.87,6.09-21.58,13.71c-7.04,11.16-11.99,23.44-18.18,35.05c-4.54,9.57-10.36,18.63-13.39,28.83 c-4.04,15.15,5.24,32.05,20.06,37.05c45.26,17.35,92.59,29.74,140.95,34.28c0.72,42.44-0.11,84.91,0.37,127.35 c42.44,0.21,84.91,0.16,127.37,0.03C404.23,233.83,403.57,191.37,404.15,148.93z" fill="inherit"/><path d="M255.04,276.3c0.13-42.47,0.19-84.93,0-127.4c-74.44-0.13-148.87-0.16-223.31,0C16.64,148.39,4.54,160.11,0,173.72v77.65 c4.46,13.71,16.64,25.43,31.76,24.93C106.17,276.43,180.6,276.43,255.04,276.3z" fill="inherit"/><path d="M648.56,148.9c-74.41-0.16-148.85-0.13-223.28-0.03c-0.19,42.47-0.13,84.93,0,127.4c74.44,0.19,148.87,0.19,223.31,0 c15.09,0.53,27.19-11.19,31.73-24.82v-77.63C675.88,160.14,663.68,148.39,648.56,148.9z" fill="inherit"/><path d="M42.6,297.74c-0.16,116.93-0.13,233.89,0,350.82c-0.5,15.09,11.21,27.21,24.82,31.76h208.96 c-0.05-127.53,0.11-255.07-0.08-382.57C198.41,297.56,120.52,297.56,42.6,297.74z" fill="inherit"/><path d="M297.72,297.74c-0.21,127.51-0.05,255.04-0.08,382.57h85.04c-0.03-127.53,0.11-255.04-0.05-382.57 C354.32,297.53,326.02,297.56,297.72,297.74z" fill="inherit"/><path d="M404.04,297.72c-0.24,127.53-0.05,255.07-0.11,382.6h208.85c13.69-4.46,25.41-16.64,24.93-31.76 c0.13-116.93,0.16-233.89-0.03-350.82C559.8,297.56,481.91,297.59,404.04,297.72z" fill="inherit"/></g></svg>