<?xml version="1.0" encoding="UTF-8" standalone="no"?><svg xmlns="http://www.w3.org/2000/svg" xmlns:xlink="http://www.w3.org/1999/xlink" fill="#000000" height="3678.5" preserveAspectRatio="xMidYMid meet" version="1" viewBox="0.0 -0.0 2701.1 3678.5" width="2701.1" zoomAndPan="magnify"><defs><clipPath id="a"><path d="M 0 434 L 2701.121094 434 L 2701.121094 3678.5 L 0 3678.5 Z M 0 434"/></clipPath></defs><g><g clip-path="url(#a)" id="change1_9"><path d="M 170.457031 512.957031 C 119.855469 512.957031 78.671875 554.136719 78.671875 604.730469 L 78.671875 3508.039062 C 78.671875 3558.648438 119.855469 3599.828125 170.457031 3599.828125 L 2530.652344 3599.828125 C 2581.265625 3599.828125 2622.445312 3558.648438 2622.445312 3508.039062 L 2622.445312 604.730469 C 2622.445312 554.136719 2581.265625 512.957031 2530.652344 512.957031 L 2227.488281 512.957031 L 2227.488281 642.246094 C 2227.488281 719.890625 2164.332031 783.0625 2086.691406 783.0625 L 580.882812 783.0625 C 503.234375 783.0625 440.054688 719.871094 440.054688 642.226562 L 440.054688 512.957031 Z M 2530.652344 3678.5 L 170.457031 3678.5 C 76.472656 3678.5 0 3602.03125 0 3508.039062 L 0 604.730469 C 0 510.746094 76.472656 434.277344 170.457031 434.277344 L 518.726562 434.277344 L 518.726562 642.226562 C 518.726562 676.5 546.605469 704.382812 580.882812 704.382812 L 2086.691406 704.382812 C 2120.945312 704.382812 2148.828125 676.5 2148.828125 642.246094 L 2148.828125 434.277344 L 2530.652344 434.277344 C 2624.65625 434.277344 2701.121094 510.746094 2701.121094 604.730469 L 2701.121094 3508.039062 C 2701.121094 3602.03125 2624.65625 3678.5 2530.652344 3678.5" fill="#ffffff"/></g><g id="change1_1"><path d="M 580.871094 311.023438 C 546.601562 311.023438 518.726562 338.894531 518.726562 373.171875 L 518.726562 642.246094 C 518.726562 676.503906 546.601562 704.375 580.871094 704.375 L 2086.691406 704.375 C 2120.953125 704.375 2148.820312 676.503906 2148.820312 642.222656 L 2148.820312 373.171875 C 2148.820312 338.894531 2120.953125 311.023438 2086.691406 311.023438 L 1747.410156 311.023438 C 1684.5625 311.023438 1627.21875 274.214844 1597.769531 214.976562 C 1556.640625 132.175781 1460.53125 78.667969 1352.921875 78.667969 C 1245.300781 78.667969 1149.191406 132.175781 1108.0625 214.976562 C 1078.632812 274.214844 1021.308594 311.023438 958.433594 311.023438 Z M 2086.691406 783.042969 L 580.871094 783.042969 C 503.21875 783.042969 440.050781 719.902344 440.050781 642.246094 L 440.050781 373.171875 C 440.050781 295.519531 503.21875 232.351562 580.871094 232.351562 L 958.433594 232.351562 C 991.226562 232.351562 1021.5625 212.265625 1037.609375 179.972656 C 1091.910156 70.632812 1215.683594 -0.00390625 1352.921875 -0.00390625 C 1490.160156 -0.00390625 1613.929688 70.632812 1668.25 179.972656 C 1684.28125 212.265625 1714.632812 232.351562 1747.410156 232.351562 L 2086.691406 232.351562 C 2164.34375 232.351562 2227.492188 295.519531 2227.492188 373.171875 L 2227.492188 642.222656 C 2227.492188 719.878906 2164.34375 783.042969 2086.691406 783.042969" fill="#ffffff"/></g><g id="change1_2"><path d="M 1416.640625 432.179688 C 1416.640625 468.679688 1387.058594 498.265625 1350.5625 498.265625 C 1314.058594 498.265625 1284.46875 468.679688 1284.46875 432.179688 C 1284.46875 395.683594 1314.058594 366.09375 1350.5625 366.09375 C 1387.058594 366.09375 1416.640625 395.683594 1416.640625 432.179688" fill="#ffffff"/></g><g id="change1_3"><path d="M 2184.472656 1426.765625 L 1495.273438 1426.765625 C 1459.070312 1426.765625 1429.71875 1397.425781 1429.71875 1361.214844 C 1429.71875 1325.007812 1459.070312 1295.652344 1495.273438 1295.652344 L 2184.472656 1295.652344 C 2220.683594 1295.652344 2250.023438 1325.007812 2250.023438 1361.214844 C 2250.023438 1397.425781 2220.683594 1426.765625 2184.472656 1426.765625" fill="#ffffff"/></g><g id="change1_4"><path d="M 2184.480469 2135.722656 L 1495.28125 2135.722656 C 1459.070312 2135.722656 1429.726562 2106.359375 1429.726562 2070.152344 C 1429.726562 2033.929688 1459.070312 2004.597656 1495.28125 2004.597656 L 2184.480469 2004.597656 C 2220.6875 2004.597656 2250.035156 2033.929688 2250.035156 2070.152344 C 2250.035156 2106.359375 2220.6875 2135.722656 2184.480469 2135.722656" fill="#ffffff"/></g><g id="change1_5"><path d="M 647.402344 1440.257812 C 660.488281 1459.898438 674.617188 1478.496094 689.410156 1496.417969 C 704.140625 1514.417969 720.75 1530.527344 738.226562 1545.773438 L 745.878906 1552.449219 L 749.15625 1555.082031 C 774.589844 1574.089844 810.609375 1568.859375 829.605469 1543.425781 C 855.464844 1508.796875 878.640625 1471.769531 905.324219 1437.894531 C 931.351562 1403.4375 957.921875 1369.453125 983.183594 1334.304688 C 1008.917969 1299.578125 1034.058594 1264.316406 1058.949219 1228.804688 C 1083.988281 1193.464844 1109.101562 1158.171875 1133.210938 1121.984375 C 1134.699219 1119.746094 1134.617188 1116.722656 1132.828125 1114.550781 C 1130.628906 1111.890625 1126.699219 1111.511719 1124.050781 1113.714844 C 1090.519531 1141.417969 1058 1170.015625 1025.398438 1198.550781 C 992.640625 1226.945312 960.148438 1255.578125 928.246094 1284.742188 C 895.875 1313.484375 864.804688 1343.40625 833.191406 1372.824219 C 818.09375 1387.484375 802.125 1401.34375 786.074219 1415.125 C 783.339844 1412.746094 780.835938 1410.117188 778.019531 1407.816406 C 760.085938 1393.011719 741.496094 1378.902344 721.855469 1365.816406 C 702.238281 1352.699219 681.957031 1340.257812 660.167969 1329.328125 C 638.703125 1318.066406 615.941406 1308.113281 590.832031 1300.507812 C 589.550781 1300.113281 588.140625 1300.082031 586.765625 1300.507812 C 583.0625 1301.625 580.976562 1305.53125 582.097656 1309.230469 C 589.710938 1334.335938 599.667969 1357.105469 610.921875 1378.570312 C 621.863281 1400.367188 634.304688 1420.636719 647.402344 1440.257812" fill="#ffffff"/></g><g id="change1_6"><path d="M 1124.050781 1822.648438 C 1090.523438 1850.347656 1058 1878.957031 1025.402344 1907.5 C 992.644531 1935.886719 960.152344 1964.519531 928.25 1993.691406 C 895.878906 2022.425781 864.804688 2052.339844 833.191406 2081.769531 C 818.09375 2096.417969 802.125 2110.292969 786.074219 2124.074219 C 783.339844 2121.679688 780.839844 2119.058594 778.023438 2116.742188 C 760.085938 2101.957031 741.496094 2087.835938 721.859375 2074.75 C 702.242188 2061.652344 681.957031 2049.203125 660.171875 2038.273438 C 638.703125 2027.019531 615.945312 2017.046875 590.832031 2009.433594 C 589.550781 2009.042969 588.144531 2009.023438 586.765625 2009.433594 C 583.066406 2010.5625 580.980469 2014.472656 582.097656 2018.164062 C 589.710938 2043.289062 599.667969 2066.050781 610.921875 2087.503906 C 621.867188 2109.300781 634.304688 2129.578125 647.402344 2149.195312 C 660.492188 2168.835938 674.621094 2187.429688 689.410156 2205.359375 C 704.144531 2223.359375 720.75 2239.476562 738.230469 2254.707031 L 745.878906 2261.375 L 749.15625 2264.019531 C 774.589844 2283.023438 810.609375 2277.800781 829.605469 2252.359375 C 855.464844 2217.75 878.644531 2180.703125 905.328125 2146.835938 C 931.351562 2112.367188 957.921875 2078.398438 983.1875 2043.242188 C 1008.921875 2008.507812 1034.0625 1973.25 1058.953125 1937.742188 C 1083.992188 1902.394531 1109.101562 1867.113281 1133.210938 1830.910156 C 1134.703125 1828.6875 1134.621094 1825.65625 1132.832031 1823.492188 C 1130.632812 1820.824219 1126.703125 1820.445312 1124.050781 1822.648438" fill="#ffffff"/></g><g id="change1_7"><path d="M 1124.050781 2531.589844 C 1090.519531 2559.300781 1058 2587.898438 1025.398438 2616.441406 C 992.644531 2644.828125 960.148438 2673.46875 928.246094 2702.628906 C 895.875 2731.371094 864.804688 2761.28125 833.191406 2790.710938 C 818.09375 2805.359375 802.125 2819.230469 786.074219 2833.019531 C 783.339844 2830.628906 780.835938 2828 778.019531 2825.699219 C 760.085938 2810.910156 741.492188 2796.78125 721.855469 2783.691406 C 702.238281 2770.589844 681.957031 2758.148438 660.171875 2747.210938 C 638.703125 2735.949219 615.941406 2726 590.832031 2718.390625 C 589.550781 2717.988281 588.140625 2717.96875 586.765625 2718.390625 C 583.066406 2719.511719 580.976562 2723.421875 582.097656 2727.121094 C 589.710938 2752.230469 599.667969 2774.988281 610.921875 2796.460938 C 621.863281 2818.238281 634.304688 2838.53125 647.402344 2858.140625 C 660.488281 2877.78125 674.621094 2896.371094 689.410156 2914.308594 C 704.140625 2932.300781 720.75 2948.421875 738.226562 2963.660156 L 745.878906 2970.328125 L 749.15625 2972.96875 C 774.589844 2991.960938 810.609375 2986.738281 829.605469 2961.308594 C 855.464844 2926.691406 878.640625 2889.648438 905.324219 2855.78125 C 931.351562 2821.320312 957.921875 2787.339844 983.1875 2752.191406 C 1008.921875 2717.460938 1034.058594 2682.199219 1058.949219 2646.699219 C 1083.988281 2611.339844 1109.101562 2576.058594 1133.210938 2539.871094 C 1134.699219 2537.628906 1134.621094 2534.601562 1132.828125 2532.429688 C 1130.628906 2529.78125 1126.699219 2529.398438 1124.050781 2531.589844" fill="#ffffff"/></g><g id="change1_8"><path d="M 2184.480469 2844.667969 L 1495.28125 2844.667969 C 1459.070312 2844.667969 1429.726562 2815.316406 1429.726562 2779.109375 C 1429.726562 2742.898438 1459.070312 2713.546875 1495.28125 2713.546875 L 2184.480469 2713.546875 C 2220.6875 2713.546875 2250.035156 2742.898438 2250.035156 2779.109375 C 2250.035156 2815.316406 2220.6875 2844.667969 2184.480469 2844.667969" fill="#ffffff"/></g></g></svg>