<?xml version="1.0" encoding="UTF-8" standalone="no"?><svg xmlns="http://www.w3.org/2000/svg" xmlns:xlink="http://www.w3.org/1999/xlink" fill="#000000" height="542.4" preserveAspectRatio="xMidYMid meet" version="1" viewBox="164.6 317.9 699.4 542.4" width="699.4" zoomAndPan="magnify"><g id="change1_1"><path d="M479.74,435.47c6.85-13.37,11.66-24.02,17.54-34.03c22.92-39.02,54.07-68.16,100.23-75.69 c37.63-6.14,74.05,0.24,107.97,18.2c44.8,23.72,70.56,61.86,80.74,110.62c8.12,38.87,3.7,77.24-8.77,114.75 c-1.4,4.22-3.29,8.28-5.2,13.04c-54.83,0-109.29,0-165.73,0c-3.89-7.22-8.5-15.43-12.8-23.8c-6.18-12-12.35-24-18.12-36.19 c-4.92-10.38-11.71-18.67-24.03-17.88c-11.99,0.77-18.25,8.88-22.26,20.03c-11.02,30.68-22.82,61.09-34.34,91.59 c-0.98,2.6-2.15,5.14-4.13,9.85c-2.37-4.55-4.38-7.42-5.44-10.62c-13.87-41.59-27.61-83.22-41.38-124.84 c-0.88-2.67-1.51-5.43-2.55-8.03c-3.86-9.65-10.54-16.33-21.32-16.42c-10.52-0.08-17.98,5.45-21.99,15.38 c-10.09,25.03-20.21,50.05-30.38,75.05c-3.38,8.31-6.96,16.54-11.25,26.7c-6.34,0-12.96-0.01-19.57,0 c-16.32,0.04-32.66-0.39-48.96,0.28c-12.99,0.53-21.12,9.38-21.42,21.51c-0.28,11.48,6.83,20.49,18.39,22.84 c3.27,0.66,6.72,0.57,10.08,0.58c24.2,0.04,48.41-0.32,72.6,0.14c14.39,0.27,23.16-6.01,28.19-19.27 c6.36-16.76,13.41-33.26,21.44-53.02c3.51,9.97,6.12,16.98,8.47,24.08c13.42,40.56,26.81,81.12,40.12,121.72 c3.41,10.4,8.93,18.08,21,18.75c11.83,0.66,19.11-3.94,24.09-16.83c9.31-24.12,18.18-48.41,27.24-72.63 c5.5-14.71,11.03-29.41,17.47-46.61c4.54,8.87,8.65,15.35,11.3,22.39c6,15.94,16.91,21.7,33.89,21.57 c77.1-0.6,154.21-0.28,231.32-0.26c5.62,0,11.32-0.31,16.86,0.42c8.69,1.14,14.79,8.06,14.85,15.79 c0.06,7.63-5.98,14.69-14.58,16.15c-4.39,0.74-8.97,0.42-13.47,0.43c-32.08,0.04-64.16,0.17-96.24-0.03 c-7.21-0.05-12.5,1.57-17.33,7.74c-50.95,65.13-114.94,115.28-184.42,158.93c-15.71,9.87-32.08,18.68-48.03,28.17 c-6.32,3.76-12.04,4.27-18.82,0.49c-85.64-47.72-164.75-103.71-227.5-180.22c-32.85-40.05-58.22-84.24-68.69-135.61 c-10.23-50.22-6.13-98.94,21.72-143.14c28.36-45.01,71.26-67.39,123.31-72.87c64.56-6.8,110.47,22.08,142.7,76.15 c3.16,5.31,5.81,10.93,8.56,16.46C473.58,422.24,475.88,427.3,479.74,435.47z" fill="#ffffff"/></g></svg>